<svg width="1024" height="335" viewBox="0 345 1024 335" fill="none" xmlns="http://www.w3.org/2000/svg">
<path d="M410.124 412.013C417.681 410.709 431.624 411.636 434.443 420.274C437.181 428.662 429.234 437.498 423.739 442.945C410.032 456.534 393.39 467.046 376.36 475.967L375.789 475.677L375.136 476.347L375.562 476.312L375.54 475.88L375.199 476.407L375.461 476.322L375.443 475.935L375.123 476.371L375.931 476.133C375.732 475.296 380.873 471.929 381.9 471.243C401.532 458.13 439.121 424.368 383.59 440.141C352.273 449.037 321.43 462.983 291.134 476.019L202.338 514.308C177.84 524.966 152.15 536.633 127.231 546.152C100.1 556.516 62.5833 571.059 33.8963 573.481C18.2153 574.948 -3.22875 569.147 12.4963 549.734C24.3423 535.109 43.1793 522.96 59.0223 513.231C60.5452 512.295 65.0653 509.193 66.4823 509.033C60.3053 514.99 24.2403 538.761 29.4823 548.277C44.0933 559.498 150.111 513.428 169.488 505.199L290.52 452.683C312.645 443.131 336.665 433.983 359.119 425.236C372.649 419.965 395.971 413.617 410.124 412.013Z" fill="#303239"/>
<path d="M210.917 463.394C232.566 438.72 252.79 413.795 277.797 392.36C284.005 387.038 290.098 380.715 297.48 377.072L299.27 378.067C307.615 383.39 310.808 395.133 312.826 404.206C309.264 406.083 305.989 408.492 302.684 410.8C290.395 421.134 279.085 430.305 267.484 441.545C261.527 447.317 247.886 463.768 241.893 467.36C233.372 472.468 210.502 482.548 201.088 485.946C198.301 487.412 194.773 488.688 191.793 489.856C186.183 484.727 183.2 479.609 178.583 474.189C168.487 462.338 153.444 442.185 141.043 433.251C143.432 423.563 145.948 411.498 153.038 404.198C161.355 404.684 167.678 411.828 172.929 417.841C179.589 425.469 189.011 436.84 194.357 445.277C197.152 446.95 212.193 469.87 218.067 474.754C216.121 470.709 213.723 466.898 210.917 463.394Z" fill="#38BFF6"/>
<path d="M153.038 404.198C161.355 404.684 167.678 411.828 172.929 417.841C179.589 425.469 189.011 436.84 194.357 445.277C192.516 444.427 192.455 444.242 191.405 442.496C187.199 442.645 176.396 462.021 173.223 466.064L173.588 466.442C177.954 471.049 188.157 485.897 192.096 488.404C195.614 488.104 199.858 484.827 201.056 485.553L201.088 485.946C198.301 487.412 194.773 488.688 191.793 489.856C186.183 484.727 183.2 479.609 178.583 474.189C168.487 462.338 153.444 442.185 141.043 433.251C143.432 423.563 145.948 411.498 153.038 404.198Z" fill="#38BFF6"/>
<path fill-rule="evenodd" clip-rule="evenodd" d="M271.375 517.607C275.524 517.601 279.668 517.625 283.707 517.719C285.053 517.75 286.388 517.789 287.707 517.837C285.128 534.64 282.333 551.409 279.324 568.14C277.784 583.332 272.868 601.689 269.359 616.708C268.296 621.257 265.179 637.297 263.685 640.404C263.418 642.519 262.75 645.218 262.293 647.357C261.756 647.352 261.213 647.349 260.667 647.35C256.843 647.354 252.816 647.477 248.812 647.567C244.234 647.669 239.686 647.726 235.502 647.509C237.68 635.36 238.977 623.046 241.205 611.086C241.319 602.714 248.642 574.107 247.273 568.049L246.64 567.73C241.058 575.434 233.243 586.535 227.241 593.621C218.474 605.889 209.443 617.966 200.155 629.844C194.824 629.765 188.227 629.82 182.998 629.496C178.388 617.41 172.183 604.346 167.094 592.275C164.242 585.509 158.491 571.096 155.055 565.516C151.609 588.131 149.02 610.877 145.303 633.459C144.842 636.259 144.469 639.113 143.838 641.881C143.728 643.59 143.245 646.211 142.978 647.978C132.891 647.797 122.461 647.892 112.347 647.865C112.795 641.969 116.02 622.823 117.393 615.43C118.02 610.323 117.991 610.298 118.338 607.973C121.135 589.232 124.935 570.545 127.207 551.735C134.299 549.287 141.323 546.648 148.271 543.821C155.183 540.961 163.312 537.254 170.298 534.975C179.552 553.789 188.441 572.78 196.962 591.937C201.428 587.556 206.328 579.769 210.656 574.7L211.342 573.663C213 571.21 215.046 568.551 216.857 566.348C226.642 554.44 235.795 541.429 245.762 529.725C247.672 527.153 249.525 524.648 251.443 522.162C252.594 520.671 253.769 519.186 254.992 517.698C257.648 517.687 260.361 517.666 263.102 517.647C265.842 517.628 268.61 517.611 271.375 517.607Z" fill="#303239"/>
<path d="M309.073 473.921C319.858 469.187 330.782 464.777 341.83 460.696C339.301 474.997 336.179 488.116 332.401 502.131C331.662 504.871 329.239 514.939 328.135 517.279C325.782 527.251 322.174 536.966 318.836 546.595C307.255 579.998 291.925 612.61 275.814 644.04C272.935 649.658 266.707 664.048 263.209 667.904C270.236 642.828 275.99 618.486 282.11 593.254L296.162 535.577C299.088 523.068 302.084 510.592 304.245 497.925C304.757 494.922 305.459 489.751 306.381 487.019C306.838 482.828 307.773 477.925 309.073 473.921Z" fill="#38BFF6"/>
<path d="M309.073 473.921C319.858 469.187 330.782 464.777 341.83 460.696C339.301 474.997 336.179 488.116 332.401 502.131C331.662 504.871 329.239 514.939 328.135 517.279L327.165 516.886C328.64 512.977 335.315 488.683 335.735 484.799C333.366 484.962 326.797 482.877 324.81 481.647C321.83 479.802 318.813 476.35 315.818 474.283C315.216 473.868 315.578 472.69 315.66 472.081L309.57 474.844C308.885 478.046 307.8 484.384 306.381 487.019C306.838 482.828 307.773 477.925 309.073 473.921Z" fill="#38BFF6"/>
<path d="M100.285 511.928C101.946 498.289 103.517 484.639 104.997 470.979C105.789 463.033 109.258 416.012 111.281 411.632C118.92 405.304 142.93 403.278 153.038 404.198C145.948 411.498 143.432 423.563 141.043 433.251C140.364 435.684 138.509 455.323 137.975 459.675C136.378 472.661 134.587 485.47 132.139 498.477C131.068 504.168 130.484 510.795 129.278 516.502C123.7 518.642 118.153 520.861 112.639 523.158C107.91 524.947 103.161 526.68 98.3914 528.356C98.6594 522.763 99.5083 517.465 100.285 511.928Z" fill="#38BFF6"/>
<path d="M98.3914 528.356C98.6594 522.763 99.5083 517.465 100.285 511.928C100.465 512.564 100.691 513.36 100.961 514.315C103.917 517.462 109.758 520.321 112.639 523.158C107.91 524.947 103.161 526.68 98.3914 528.356Z" fill="#38BFF6"/>
<path d="M214.245 357.043C232.358 356.12 247.803 370.026 248.78 388.136C249.756 406.247 235.895 421.733 217.788 422.762C199.605 423.795 184.041 409.864 183.061 391.679C182.081 373.494 196.057 357.971 214.245 357.043Z" fill="#484953"/>
<path d="M297.48 377.072C311.481 371.491 337.365 366.443 343.29 384.993C346.893 396.275 347.043 412.618 346.542 424.524C335.561 428.897 324.76 432.766 313.704 437.273C313.737 428.818 314.081 412.031 312.826 404.206C310.808 395.133 307.615 383.39 299.27 378.067L297.48 377.072Z" fill="#38BFF6"/>
<path fill-rule="evenodd" clip-rule="evenodd" d="M334.462 517.522C356.565 517.839 378.83 517.201 400.799 517.615C399.374 526.218 397.598 535.128 396.384 543.691L351.23 543.422C344.066 543.412 333.869 543.124 326.85 543.673C325.144 552.657 323.3 561.16 322.18 570.279C342.401 570.119 361.946 569.767 382.25 569.92C381.363 578.278 379.626 586.384 378.794 594.996L317.804 594.855C317.266 601.736 314.429 616.156 313.232 623.451C334.055 624.654 363.762 623.52 385.23 623.314C384.289 631.029 382.477 640.122 381.095 647.796C347.556 647.911 314.016 647.765 280.48 647.356C294.319 621.527 306.672 594.928 317.478 567.691C320.737 559.351 323.793 552.002 326.435 543.428C328.598 535.152 332.061 526.441 334.462 517.522Z" fill="#303239"/>
<path d="M115.488 556.934L115.817 557.714C108.84 583.729 84.5642 642.341 68.5302 662.906L68.1193 662.593C68.6763 659.638 71.0602 653.232 72.0482 649.833C74.6322 640.881 77.0253 631.876 79.2273 622.823C82.1593 610.524 84.5863 597.576 87.1013 585.171C88.4913 578.313 89.2833 571.813 90.8993 564.864C99.1113 562.27 107.308 559.627 115.488 556.934Z" fill="#38BFF6"/>
<path d="M973 475H495.711L485 548H962.289L973 475Z" fill="url(#paint0_linear_28_13)"/>
<path d="M1017.5 381.5H460.5L448 472.5H1005L1017.5 381.5Z" fill="url(#paint1_linear_28_13)"/>
<path d="M884.553 489.48C884.943 491.142 884.554 492.505 884.279 494.211C884.035 495.897 884.052 496.844 883.106 498.267C879.526 498.801 863.244 498.45 858.701 498.468C858.234 501.369 857.935 504.569 857.601 507.514L879.081 507.553C879.023 510.155 878.784 512.886 878.604 515.494C870.707 515.68 864.071 515.813 856.142 515.594C855.579 518.448 855.322 522.316 855.047 525.289C863.51 525.272 871.929 525.015 880.461 525.035C880.202 527.873 880.064 530.898 879.89 533.76C866.686 533.885 853.482 533.944 840.278 533.936C841.874 520.756 845.021 503.017 847.184 489.699C856.564 490.004 875.195 490.065 884.553 489.48Z" fill="white"/>
<path d="M648.636 490.02C653.079 489.91 657.793 489.995 662.258 490.001C664.811 496.29 670.706 505.835 674.391 511.634C680.371 504.666 686.802 497.405 692.518 490.267C696.706 489.876 701.022 489.987 705.236 490.005C703.105 503.837 701.367 520.338 698.786 533.633L687.335 533.71C687.886 529.319 688.28 525.166 688.939 520.75C689.25 516.793 690.113 511.431 690.636 507.385C669.318 527.236 676.454 535.781 658.101 506.326C657.045 515.47 655.932 524.607 654.762 533.737L642.045 533.632C644.4 522.295 647.591 501.503 648.636 490.02Z" fill="white"/>
<path d="M582.882 489.947L595.817 490.006C599.554 497 603.559 505.248 607.83 511.745C613.889 504.461 620.103 497.307 626.468 490.288C630.465 489.887 634.733 490 638.773 490.016C636.519 502.742 633.784 520.775 632.326 533.624C628.347 533.709 624.138 533.575 620.142 533.515C620.65 528.907 621.292 525.114 622.11 520.573C622.832 516.135 623.488 511.687 624.075 507.23C604.86 525.336 608.998 537.22 592.241 506.442C590.936 514.757 589.034 525.31 588.39 533.58L576.021 533.542C578.129 519.047 581.097 504.492 582.882 489.947Z" fill="white"/>
<path d="M739.801 489.739C743.535 489.657 747.596 489.782 751.356 489.826C755.948 498.287 762.914 508.824 769.02 516.141C770.194 507.243 771.51 498.804 772.466 489.819L785.253 490.033C785.216 490.388 785.179 490.743 785.141 491.099C782.628 505.095 780.867 519.246 778.273 533.211C777.991 533.43 777.709 533.649 777.426 533.869L766.431 533.865C761.779 525.902 753.736 514.958 748.31 507.121C746.78 515.887 745.431 524.684 744.261 533.505L731.818 533.475C734.641 519.832 735.875 504.077 738.812 490.336L739.801 489.739Z" fill="white"/>
<path d="M814.908 489.19C822.224 488.503 829.6 489.497 836.474 492.094C835.436 494.969 834.416 497.851 833.413 500.739C828.273 498.801 826.701 498.364 820.714 497.989C807.964 497.189 795.761 512.581 806.105 522.866C809.574 526.315 816.044 525.873 820.964 525.398C821.476 522.3 822.196 518.772 822.184 515.653C822.179 514.329 818.981 513.429 819.015 511.118C821.036 509.233 826.058 509.715 828.865 509.751L835.309 509.961C834.365 517.262 833.035 524.552 831.778 531.809C829.053 532.637 826.279 533.29 823.471 533.764C810.339 536.064 791.058 534.647 789.09 517.854C788.36 511.469 790.185 505.054 794.166 500.009C799.507 493.302 806.559 490.2 814.908 489.19Z" fill="white"/>
<path d="M536.458 489.943L574.416 489.98C574.034 492.944 573.405 495.59 572.755 498.502C564.6 498.421 556.445 498.423 548.291 498.509C547.756 501.424 547.314 504.523 546.85 507.466C554.104 507.36 561.611 507.492 568.884 507.526C568.555 510.189 568.196 512.849 567.809 515.504C560.542 515.697 553.057 515.663 545.771 515.713C545.03 518.832 544.702 521.956 544.296 525.135C552.68 525.043 561.065 525.026 569.449 525.084L568.946 533.703C557.107 534.253 542.282 533.722 530.059 533.829C531.571 519.939 534.36 503.917 536.458 489.943Z" fill="white"/>
<path d="M715.71 489.968C719.962 489.856 724.588 489.994 728.869 490.038C726.338 504.018 724.158 519.292 722.089 533.404L708.771 533.706C711.3 520.354 714.188 503.431 715.71 489.968Z" fill="white"/>
<path fill-rule="evenodd" clip-rule="evenodd" d="M904.257 489.544C918.038 489.723 939.406 487.793 932.924 508.978C928.556 514.293 927.879 514.214 922.172 517.5C925.569 523.01 929.08 528.449 932.703 533.813C928.139 533.958 923.575 534.07 919.01 534.151L918.351 533.94C917.642 532.174 916.896 531.195 915.84 529.597C914.124 527 915.5 529 913.5 526L909 518.5C906.5 518.5 906 518.5 901.5 519C901 521 901.29 524 899.734 532.112C899.58 532.915 899.624 532.59 898.966 533.354C895.489 533.845 890.166 533.648 886.521 533.626C888.714 522.37 892.319 502.368 893.189 491.145L893.831 490.09C896.881 489.407 901.033 489.502 904.257 489.544ZM905.18 498.067C904.622 502.292 904.026 506.511 903.392 510.725C908.377 510.917 912.709 511.446 917.464 509.799C928.892 499.08 912.252 497.946 905.18 498.067Z" fill="white"/>
<path d="M507.008 398.753C511.728 398.694 516.448 398.7 521.168 398.769C527.018 407.89 531.802 417.506 537.604 426.649C545.049 419.3 554.841 407.381 562.678 399.064C568.13 398.962 573.584 398.971 579.036 399.089C575.988 417.737 572.651 436.379 569.855 455.049C564.691 455.266 559.674 455.163 554.513 455.094C555.027 448.439 556.232 442.182 557.386 435.616C558.068 430.547 558.829 425.488 559.669 420.443C553.398 426.697 545.299 436.593 539.475 443.449C536.588 443.503 533.539 443.378 530.64 443.313C526.453 435.796 521.376 426.523 516.662 419.494C515.509 431.872 513.818 443.133 512.194 455.432C507.012 455.495 501.593 455.396 496.392 455.369C497.704 447.299 503.035 403.653 505.286 399.03L507.008 398.753Z" fill="white"/>
<path d="M725.18 398.872C730.564 398.834 736.102 398.932 741.499 398.964C739.925 406.272 734.432 453.524 731.896 455.325C726.783 455.408 721.668 455.36 716.557 455.181C717.243 447.45 719.046 440.118 719.669 432.465L694.726 432.365C693.512 439.93 692.393 447.509 691.371 455.102C685.49 455.383 680.915 455.331 675.085 455.084C676.797 438.683 680.964 415.571 683.668 398.941L700.235 398.987C699.607 406.565 697.755 412.833 697.443 421.181C705.449 421.001 713.75 421.075 721.78 421.041C723.104 415.494 724.529 404.687 725.18 398.872Z" fill="white"/>
<path d="M924.066 399.039C940.488 398.896 956.912 398.902 973.334 399.058C972.336 402.625 971.699 406.737 971.039 410.421L939.181 410.265C938.496 414.385 938.149 417.294 937.83 421.463L965.059 421.588L964.25 432.213C954.749 432.421 945.245 432.506 935.741 432.468C934.617 435.93 934.056 440.395 933.753 444.011C944.491 443.861 955.447 443.927 966.201 443.898L965.126 455.274C948.489 455.356 931.851 455.344 915.213 455.237C918.32 437.997 921.887 416.343 924.066 399.039Z" fill="white"/>
<path d="M754.155 398.899C767.011 398.674 790.78 398.374 803.367 399.285L801.589 410.071C790.679 410.238 779.767 410.23 768.857 410.047C768.471 413.869 768.148 417.697 767.885 421.53L795.188 421.481L793.73 432.104C784.639 432.265 775.546 432.353 766.454 432.368L765.763 432.713C764.794 435.514 764.324 440.493 763.919 443.617C774.764 443.537 785.609 443.545 796.454 443.642C795.784 447.515 795.326 451.166 794.847 455.069C778.518 455.209 762.189 455.199 745.86 455.041C748.504 439.144 752.805 414.024 754.155 398.899Z" fill="white"/>
<path d="M650.909 397.71C659.537 397.105 666.28 398.804 674.314 401.552L670.98 413.077C662.713 409.82 653.917 408.188 645.278 411.043C640.304 412.687 635.73 415.808 633.448 420.653C631.293 425.229 631.114 431.459 633.055 436.139C639.604 451.933 663.682 440.332 665.932 441.272L666.318 443.07C666.777 446.252 667.066 449.673 667.392 452.892C601.483 472.759 597.286 401.703 650.909 397.71Z" fill="white"/>
<path d="M868.699 398.904C874.19 398.862 879.681 398.918 885.17 399.072C883.178 413.395 879.414 429.428 878.299 443.623C888.63 443.399 899.412 443.554 909.775 443.557C909.375 446.094 908.491 453.301 907.411 455.145C891.724 455.173 875.61 455.542 859.98 455.046C862.492 436.267 866.494 417.018 868.699 398.904Z" fill="white"/>
<path d="M814.175 398.984C819.618 398.951 825.06 398.997 830.501 399.12C827.858 413.638 825.646 428.927 823.357 443.552L853.888 443.531C853.256 447.357 852.586 451.176 851.876 454.988C836.674 455.368 820.512 455.251 805.269 455.172C805.701 449.355 807.621 439.131 808.57 433.138C810.334 421.992 812.069 410.032 814.175 398.984Z" fill="white"/>
<path d="M592.152 399.093C597.907 399.013 603.097 398.948 608.861 399.217C606.195 417.617 602.544 436.461 599.765 455.132C594.492 455.352 589.123 455.241 583.839 455.199C584.338 447.872 586.04 438.024 587.179 430.719C588.764 420.166 590.422 409.624 592.152 399.093Z" fill="white"/>
<path d="M494.102 588L497.966 564.727H506.261C508.064 564.727 509.504 565.057 510.58 565.716C511.663 566.375 512.405 567.273 512.807 568.409C513.216 569.545 513.303 570.83 513.068 572.261C512.826 573.693 512.311 574.981 511.523 576.125C510.742 577.261 509.701 578.163 508.398 578.83C507.095 579.489 505.545 579.818 503.75 579.818H498.034L498.523 576.841H503.909C505.053 576.841 506.015 576.644 506.795 576.25C507.583 575.848 508.201 575.303 508.648 574.614C509.095 573.917 509.386 573.133 509.523 572.261C509.667 571.375 509.629 570.595 509.409 569.92C509.189 569.239 508.754 568.705 508.102 568.318C507.458 567.932 506.557 567.739 505.398 567.739H500.989L497.614 588H494.102ZM523.094 588.352C521.382 588.352 519.966 587.985 518.844 587.25C517.731 586.508 516.95 585.466 516.503 584.125C516.056 582.777 515.984 581.197 516.288 579.386C516.583 577.598 517.178 576.023 518.072 574.659C518.966 573.295 520.079 572.231 521.413 571.466C522.753 570.701 524.234 570.318 525.856 570.318C526.841 570.318 527.769 570.481 528.64 570.807C529.519 571.133 530.265 571.644 530.878 572.341C531.492 573.038 531.916 573.943 532.151 575.057C532.394 576.163 532.386 577.508 532.128 579.091L531.935 580.295H518.049L518.447 577.75H528.992C529.151 576.856 529.109 576.064 528.867 575.375C528.625 574.678 528.208 574.129 527.617 573.727C527.034 573.326 526.299 573.125 525.413 573.125C524.503 573.125 523.655 573.364 522.867 573.841C522.079 574.318 521.42 574.928 520.89 575.67C520.367 576.405 520.038 577.163 519.901 577.943L519.503 580.273C519.306 581.545 519.341 582.568 519.606 583.341C519.878 584.114 520.356 584.674 521.038 585.023C521.719 585.371 522.572 585.545 523.594 585.545C524.253 585.545 524.863 585.455 525.424 585.273C525.992 585.083 526.496 584.807 526.935 584.443C527.375 584.072 527.742 583.61 528.038 583.057L531.151 583.636C530.734 584.583 530.136 585.413 529.356 586.125C528.575 586.83 527.655 587.379 526.594 587.773C525.541 588.159 524.375 588.352 523.094 588.352ZM536.061 588L538.97 570.545H542.254L541.788 573.318H541.97C542.44 572.379 543.125 571.64 544.027 571.102C544.928 570.557 545.89 570.284 546.913 570.284C547.133 570.284 547.383 570.292 547.663 570.307C547.943 570.314 548.171 570.333 548.345 570.364L547.799 573.614C547.671 573.576 547.436 573.534 547.095 573.489C546.754 573.436 546.402 573.409 546.038 573.409C545.243 573.409 544.504 573.58 543.822 573.92C543.14 574.254 542.568 574.72 542.106 575.318C541.644 575.909 541.345 576.583 541.209 577.341L539.459 588H536.061ZM565.289 574.807L562.118 575.352C562.05 574.951 561.91 574.572 561.698 574.216C561.493 573.86 561.179 573.572 560.755 573.352C560.33 573.125 559.766 573.011 559.061 573.011C558.084 573.011 557.228 573.235 556.493 573.682C555.766 574.129 555.349 574.697 555.243 575.386C555.145 575.947 555.277 576.402 555.641 576.75C556.005 577.091 556.645 577.375 557.561 577.602L560.243 578.239C561.789 578.61 562.895 579.189 563.561 579.977C564.236 580.758 564.47 581.773 564.266 583.023C564.092 584.061 563.637 584.981 562.902 585.784C562.175 586.587 561.243 587.216 560.107 587.67C558.97 588.125 557.705 588.352 556.311 588.352C554.327 588.352 552.781 587.932 551.675 587.091C550.569 586.25 550.001 585.061 549.97 583.523L553.334 583.023C553.395 583.879 553.702 584.527 554.255 584.966C554.815 585.398 555.592 585.614 556.584 585.614C557.72 585.621 558.671 585.383 559.436 584.898C560.202 584.413 560.637 583.826 560.743 583.136C560.834 582.598 560.713 582.152 560.38 581.795C560.054 581.439 559.478 581.167 558.652 580.977L555.834 580.33C554.258 579.958 553.145 579.36 552.493 578.534C551.842 577.708 551.622 576.67 551.834 575.42C552.001 574.398 552.433 573.508 553.13 572.75C553.834 571.985 554.724 571.39 555.8 570.966C556.876 570.534 558.065 570.318 559.368 570.318C561.27 570.318 562.698 570.727 563.652 571.545C564.607 572.356 565.152 573.443 565.289 574.807ZM576.193 588.352C574.534 588.352 573.147 587.973 572.034 587.216C570.92 586.451 570.136 585.383 569.681 584.011C569.234 582.633 569.159 581.03 569.454 579.205C569.742 577.417 570.321 575.856 571.193 574.523C572.071 573.189 573.17 572.155 574.488 571.42C575.814 570.686 577.287 570.318 578.909 570.318C580.568 570.318 581.95 570.701 583.056 571.466C584.17 572.231 584.954 573.303 585.409 574.682C585.863 576.061 585.943 577.667 585.647 579.5C585.359 581.273 584.772 582.826 583.886 584.159C583.007 585.485 581.909 586.515 580.59 587.25C579.272 587.985 577.806 588.352 576.193 588.352ZM576.386 585.5C577.477 585.5 578.427 585.212 579.238 584.636C580.056 584.061 580.723 583.295 581.238 582.341C581.753 581.386 582.105 580.341 582.295 579.205C582.469 578.106 582.465 577.102 582.284 576.193C582.109 575.277 581.73 574.542 581.147 573.989C580.564 573.436 579.753 573.159 578.715 573.159C577.624 573.159 576.666 573.451 575.84 574.034C575.022 574.61 574.355 575.379 573.84 576.341C573.333 577.303 572.988 578.352 572.806 579.489C572.632 580.58 572.632 581.583 572.806 582.5C572.98 583.409 573.359 584.136 573.943 584.682C574.526 585.227 575.34 585.5 576.386 585.5ZM594.756 577.636L593.051 588H589.653L592.562 570.545H595.824L595.347 573.386H595.562C596.116 572.455 596.869 571.712 597.824 571.159C598.786 570.598 599.922 570.318 601.233 570.318C602.415 570.318 603.407 570.568 604.21 571.068C605.021 571.561 605.593 572.295 605.926 573.273C606.267 574.25 606.32 575.458 606.085 576.898L604.222 588H600.824L602.608 577.307C602.813 576.042 602.646 575.053 602.108 574.341C601.578 573.621 600.733 573.261 599.574 573.261C598.786 573.261 598.055 573.432 597.381 573.773C596.714 574.114 596.15 574.614 595.688 575.273C595.233 575.924 594.922 576.712 594.756 577.636ZM615.401 588.386C614.295 588.386 613.329 588.182 612.503 587.773C611.678 587.356 611.068 586.754 610.674 585.966C610.28 585.178 610.178 584.212 610.367 583.068C610.534 582.083 610.859 581.273 611.344 580.636C611.837 580 612.435 579.496 613.14 579.125C613.844 578.746 614.609 578.462 615.435 578.273C616.261 578.083 617.094 577.943 617.935 577.852C618.996 577.731 619.856 577.629 620.515 577.545C621.181 577.462 621.681 577.333 622.015 577.159C622.348 576.977 622.549 576.682 622.617 576.273V576.193C622.776 575.208 622.632 574.443 622.185 573.898C621.746 573.345 620.981 573.068 619.89 573.068C618.753 573.068 617.799 573.318 617.026 573.818C616.261 574.318 615.697 574.879 615.333 575.5L612.287 574.773C612.833 573.712 613.526 572.856 614.367 572.205C615.216 571.545 616.144 571.068 617.151 570.773C618.159 570.47 619.189 570.318 620.242 570.318C620.939 570.318 621.662 570.402 622.412 570.568C623.162 570.727 623.844 571.023 624.458 571.455C625.079 571.886 625.541 572.504 625.844 573.307C626.147 574.102 626.193 575.136 625.981 576.409L624.06 588H620.742L621.151 585.614H621.015C620.727 586.053 620.325 586.485 619.81 586.909C619.303 587.333 618.681 587.686 617.947 587.966C617.212 588.246 616.363 588.386 615.401 588.386ZM616.56 585.659C617.507 585.659 618.344 585.473 619.072 585.102C619.806 584.731 620.401 584.246 620.856 583.648C621.31 583.042 621.594 582.394 621.708 581.705L622.083 579.455C621.939 579.576 621.685 579.686 621.322 579.784C620.966 579.883 620.564 579.97 620.117 580.045C619.67 580.121 619.231 580.186 618.799 580.239C618.375 580.292 618.022 580.341 617.742 580.386C617.075 580.47 616.45 580.61 615.867 580.807C615.291 581.004 614.81 581.288 614.424 581.659C614.037 582.023 613.795 582.508 613.697 583.114C613.56 583.955 613.761 584.591 614.299 585.023C614.844 585.447 615.598 585.659 616.56 585.659ZM637.447 564.727L633.584 588H630.186L634.049 564.727H637.447ZM672.005 572.295H668.528C668.513 571.538 668.373 570.871 668.107 570.295C667.842 569.712 667.479 569.223 667.016 568.83C666.562 568.428 666.028 568.125 665.414 567.92C664.801 567.716 664.138 567.614 663.426 567.614C662.054 567.614 660.766 567.962 659.562 568.659C658.357 569.356 657.331 570.371 656.482 571.705C655.634 573.038 655.051 574.663 654.732 576.58C654.422 578.443 654.46 580.008 654.846 581.273C655.232 582.538 655.884 583.496 656.801 584.148C657.725 584.792 658.835 585.114 660.13 585.114C660.888 585.114 661.626 585.015 662.346 584.818C663.073 584.614 663.748 584.314 664.369 583.92C664.99 583.527 665.539 583.045 666.016 582.477C666.501 581.902 666.88 581.242 667.153 580.5H670.676C670.297 581.652 669.763 582.705 669.073 583.659C668.384 584.614 667.57 585.439 666.63 586.136C665.691 586.833 664.66 587.371 663.539 587.75C662.418 588.129 661.232 588.318 659.982 588.318C657.929 588.318 656.179 587.83 654.732 586.852C653.293 585.867 652.259 584.466 651.63 582.648C651.009 580.83 650.903 578.663 651.312 576.148C651.729 573.701 652.524 571.602 653.698 569.852C654.88 568.095 656.32 566.75 658.016 565.818C659.721 564.879 661.562 564.409 663.539 564.409C664.789 564.409 665.933 564.587 666.971 564.943C668.009 565.292 668.903 565.807 669.653 566.489C670.41 567.163 670.994 567.989 671.403 568.966C671.812 569.936 672.013 571.045 672.005 572.295ZM682.386 588.352C680.727 588.352 679.341 587.973 678.227 587.216C677.114 586.451 676.33 585.383 675.875 584.011C675.428 582.633 675.352 581.03 675.648 579.205C675.936 577.417 676.515 575.856 677.386 574.523C678.265 573.189 679.364 572.155 680.682 571.42C682.008 570.686 683.481 570.318 685.102 570.318C686.761 570.318 688.144 570.701 689.25 571.466C690.364 572.231 691.148 573.303 691.602 574.682C692.057 576.061 692.136 577.667 691.841 579.5C691.553 581.273 690.966 582.826 690.08 584.159C689.201 585.485 688.102 586.515 686.784 587.25C685.466 587.985 684 588.352 682.386 588.352ZM682.58 585.5C683.67 585.5 684.621 585.212 685.432 584.636C686.25 584.061 686.917 583.295 687.432 582.341C687.947 581.386 688.299 580.341 688.489 579.205C688.663 578.106 688.659 577.102 688.477 576.193C688.303 575.277 687.924 574.542 687.341 573.989C686.758 573.436 685.947 573.159 684.909 573.159C683.818 573.159 682.86 573.451 682.034 574.034C681.216 574.61 680.549 575.379 680.034 576.341C679.527 577.303 679.182 578.352 679 579.489C678.826 580.58 678.826 581.583 679 582.5C679.174 583.409 679.553 584.136 680.136 584.682C680.72 585.227 681.534 585.5 682.58 585.5ZM700.87 588.386C699.764 588.386 698.798 588.182 697.972 587.773C697.146 587.356 696.537 586.754 696.143 585.966C695.749 585.178 695.646 584.212 695.836 583.068C696.002 582.083 696.328 581.273 696.813 580.636C697.305 580 697.904 579.496 698.609 579.125C699.313 578.746 700.078 578.462 700.904 578.273C701.73 578.083 702.563 577.943 703.404 577.852C704.465 577.731 705.324 577.629 705.984 577.545C706.65 577.462 707.15 577.333 707.484 577.159C707.817 576.977 708.018 576.682 708.086 576.273V576.193C708.245 575.208 708.101 574.443 707.654 573.898C707.215 573.345 706.449 573.068 705.359 573.068C704.222 573.068 703.268 573.318 702.495 573.818C701.73 574.318 701.165 574.879 700.802 575.5L697.756 574.773C698.302 573.712 698.995 572.856 699.836 572.205C700.684 571.545 701.612 571.068 702.62 570.773C703.627 570.47 704.658 570.318 705.711 570.318C706.408 570.318 707.131 570.402 707.881 570.568C708.631 570.727 709.313 571.023 709.927 571.455C710.548 571.886 711.01 572.504 711.313 573.307C711.616 574.102 711.662 575.136 711.449 576.409L709.529 588H706.211L706.62 585.614H706.484C706.196 586.053 705.794 586.485 705.279 586.909C704.771 587.333 704.15 587.686 703.415 587.966C702.68 588.246 701.832 588.386 700.87 588.386ZM702.029 585.659C702.976 585.659 703.813 585.473 704.54 585.102C705.275 584.731 705.87 584.246 706.324 583.648C706.779 583.042 707.063 582.394 707.177 581.705L707.552 579.455C707.408 579.576 707.154 579.686 706.79 579.784C706.434 579.883 706.033 579.97 705.586 580.045C705.139 580.121 704.699 580.186 704.268 580.239C703.843 580.292 703.491 580.341 703.211 580.386C702.544 580.47 701.919 580.61 701.336 580.807C700.76 581.004 700.279 581.288 699.893 581.659C699.506 582.023 699.264 582.508 699.165 583.114C699.029 583.955 699.23 584.591 699.768 585.023C700.313 585.447 701.067 585.659 702.029 585.659ZM722.961 588.352C721.264 588.352 719.874 587.97 718.791 587.205C717.708 586.432 716.954 585.367 716.53 584.011C716.105 582.655 716.037 581.102 716.325 579.352C716.613 577.58 717.2 576.015 718.086 574.659C718.98 573.295 720.098 572.231 721.439 571.466C722.787 570.701 724.283 570.318 725.927 570.318C727.253 570.318 728.393 570.564 729.348 571.057C730.302 571.542 731.026 572.223 731.518 573.102C732.011 573.981 732.223 575.008 732.155 576.182H728.848C728.795 575.364 728.492 574.659 727.939 574.068C727.386 573.477 726.571 573.182 725.495 573.182C724.548 573.182 723.677 573.432 722.882 573.932C722.086 574.424 721.416 575.129 720.87 576.045C720.325 576.955 719.954 578.03 719.757 579.273C719.545 580.545 719.556 581.644 719.791 582.568C720.026 583.492 720.458 584.208 721.086 584.716C721.715 585.223 722.507 585.477 723.461 585.477C724.113 585.477 724.719 585.36 725.28 585.125C725.848 584.883 726.348 584.538 726.78 584.091C727.219 583.644 727.56 583.106 727.802 582.477H731.12C730.795 583.606 730.249 584.614 729.484 585.5C728.727 586.386 727.795 587.083 726.689 587.591C725.583 588.098 724.34 588.352 722.961 588.352ZM740.524 577.636L738.82 588H735.422L739.286 564.727H742.638L741.206 573.386H741.422C741.975 572.439 742.718 571.693 743.649 571.148C744.589 570.595 745.74 570.318 747.104 570.318C748.301 570.318 749.305 570.564 750.115 571.057C750.934 571.549 751.509 572.284 751.843 573.261C752.184 574.231 752.237 575.443 752.002 576.898L750.138 588H746.74L748.513 577.307C748.725 576.027 748.559 575.034 748.013 574.33C747.468 573.617 746.615 573.261 745.456 573.261C744.646 573.261 743.896 573.432 743.206 573.773C742.524 574.114 741.949 574.614 741.479 575.273C741.009 575.924 740.691 576.712 740.524 577.636ZM756.261 588L759.17 570.545H762.568L759.659 588H756.261ZM761.579 567.818C760.988 567.818 760.488 567.621 760.079 567.227C759.677 566.826 759.492 566.348 759.522 565.795C759.552 565.235 759.787 564.758 760.227 564.364C760.666 563.962 761.177 563.761 761.761 563.761C762.352 563.761 762.848 563.962 763.249 564.364C763.651 564.758 763.84 565.235 763.818 565.795C763.787 566.348 763.552 566.826 763.113 567.227C762.681 567.621 762.17 567.818 761.579 567.818ZM770.943 577.636L769.239 588H765.841L768.75 570.545H772.011L771.534 573.386H771.75C772.303 572.455 773.057 571.712 774.011 571.159C774.973 570.598 776.11 570.318 777.42 570.318C778.602 570.318 779.595 570.568 780.398 571.068C781.208 571.561 781.78 572.295 782.114 573.273C782.455 574.25 782.508 575.458 782.273 576.898L780.409 588H777.011L778.795 577.307C779 576.042 778.833 575.053 778.295 574.341C777.765 573.621 776.92 573.261 775.761 573.261C774.973 573.261 774.242 573.432 773.568 573.773C772.902 574.114 772.337 574.614 771.875 575.273C771.42 575.924 771.11 576.712 770.943 577.636ZM792.782 594.909C791.388 594.909 790.221 594.727 789.282 594.364C788.35 594 787.615 593.519 787.077 592.92C786.547 592.322 786.18 591.667 785.975 590.955L789.111 589.75C789.263 590.083 789.475 590.436 789.748 590.807C790.02 591.186 790.426 591.508 790.964 591.773C791.509 592.038 792.255 592.17 793.202 592.17C794.49 592.17 795.615 591.856 796.577 591.227C797.539 590.606 798.134 589.614 798.361 588.25L798.895 584.818H798.68C798.422 585.189 798.066 585.602 797.611 586.057C797.157 586.511 796.57 586.905 795.85 587.239C795.13 587.572 794.236 587.739 793.168 587.739C791.789 587.739 790.6 587.417 789.6 586.773C788.608 586.121 787.895 585.163 787.464 583.898C787.032 582.625 786.971 581.061 787.282 579.205C787.585 577.348 788.161 575.758 789.009 574.432C789.865 573.106 790.903 572.091 792.123 571.386C793.35 570.674 794.664 570.318 796.066 570.318C797.149 570.318 797.994 570.5 798.6 570.864C799.214 571.22 799.668 571.636 799.964 572.114C800.259 572.591 800.475 573.011 800.611 573.375H800.861L801.327 570.545H804.657L801.702 588.386C801.46 589.886 800.911 591.117 800.055 592.08C799.206 593.042 798.149 593.754 796.884 594.216C795.627 594.678 794.259 594.909 792.782 594.909ZM794.327 584.92C795.297 584.92 796.161 584.693 796.918 584.239C797.683 583.777 798.32 583.117 798.827 582.261C799.335 581.398 799.687 580.364 799.884 579.159C800.081 577.985 800.07 576.951 799.85 576.057C799.638 575.163 799.225 574.466 798.611 573.966C798.005 573.458 797.214 573.205 796.236 573.205C795.206 573.205 794.312 573.47 793.555 574C792.797 574.523 792.18 575.235 791.702 576.136C791.233 577.038 790.903 578.045 790.714 579.159C790.532 580.303 790.536 581.307 790.725 582.17C790.922 583.034 791.316 583.708 791.907 584.193C792.498 584.678 793.305 584.92 794.327 584.92ZM824.701 588.33C823.14 588.33 821.844 588.045 820.814 587.477C819.784 586.909 819.045 586.136 818.598 585.159C818.159 584.174 818.045 583.061 818.257 581.818C818.401 580.864 818.731 580.019 819.246 579.284C819.769 578.549 820.435 577.867 821.246 577.239C822.064 576.61 822.985 575.977 824.007 575.341L828.189 572.693C828.886 572.277 829.451 571.837 829.882 571.375C830.314 570.905 830.591 570.326 830.712 569.636C830.795 569.091 830.644 568.568 830.257 568.068C829.871 567.568 829.28 567.318 828.485 567.318C827.947 567.318 827.447 567.451 826.985 567.716C826.53 567.981 826.151 568.322 825.848 568.739C825.553 569.148 825.367 569.58 825.291 570.034C825.208 570.564 825.269 571.098 825.473 571.636C825.678 572.167 825.966 572.72 826.337 573.295C826.716 573.864 827.106 574.458 827.507 575.08L836.155 588H832.314L825.121 577.489C824.523 576.602 823.969 575.769 823.462 574.989C822.954 574.201 822.568 573.405 822.303 572.602C822.038 571.792 821.981 570.917 822.132 569.977C822.307 568.909 822.704 567.962 823.326 567.136C823.947 566.303 824.735 565.652 825.689 565.182C826.651 564.712 827.723 564.477 828.905 564.477C830.102 564.477 831.094 564.712 831.882 565.182C832.67 565.644 833.231 566.261 833.564 567.034C833.905 567.799 833.996 568.636 833.837 569.545C833.655 570.652 833.216 571.625 832.519 572.466C831.829 573.307 830.947 574.083 829.871 574.795L824.644 578.239C823.621 578.913 822.879 579.576 822.416 580.227C821.954 580.871 821.697 581.371 821.644 581.727C821.538 582.394 821.61 583.011 821.86 583.58C822.11 584.148 822.519 584.602 823.087 584.943C823.663 585.284 824.371 585.455 825.212 585.455C826.068 585.455 826.935 585.269 827.814 584.898C828.701 584.519 829.534 583.977 830.314 583.273C831.102 582.568 831.773 581.723 832.326 580.739C832.886 579.754 833.265 578.652 833.462 577.432H836.53C836.28 578.932 835.905 580.193 835.405 581.216C834.913 582.239 834.379 583.076 833.803 583.727C833.235 584.371 832.708 584.886 832.223 585.273C832.064 585.394 831.901 585.515 831.735 585.636C831.568 585.758 831.405 585.879 831.246 586C830.329 586.788 829.28 587.375 828.098 587.761C826.916 588.14 825.784 588.33 824.701 588.33ZM850.759 588L854.622 564.727H869.054L868.554 567.75H857.634L856.452 574.841H866.338L865.838 577.852H855.952L854.27 588H850.759ZM870.836 588L873.745 570.545H877.143L874.234 588H870.836ZM876.154 567.818C875.563 567.818 875.063 567.621 874.654 567.227C874.252 566.826 874.067 566.348 874.097 565.795C874.127 565.235 874.362 564.758 874.802 564.364C875.241 563.962 875.752 563.761 876.336 563.761C876.927 563.761 877.423 563.962 877.824 564.364C878.226 564.758 878.415 565.235 878.393 565.795C878.362 566.348 878.127 566.826 877.688 567.227C877.256 567.621 876.745 567.818 876.154 567.818ZM891.461 570.545L891.018 573.273H881.484L881.927 570.545H891.461ZM885.166 566.364H888.564L885.814 582.875C885.708 583.534 885.727 584.03 885.87 584.364C886.014 584.689 886.234 584.913 886.53 585.034C886.833 585.148 887.17 585.205 887.541 585.205C887.814 585.205 888.052 585.186 888.257 585.148C888.461 585.11 888.624 585.08 888.745 585.057L888.927 587.864C888.7 587.939 888.393 588.015 888.007 588.091C887.628 588.174 887.166 588.22 886.62 588.227C885.727 588.242 884.92 588.083 884.2 587.75C883.48 587.409 882.942 586.894 882.586 586.205C882.23 585.508 882.143 584.633 882.325 583.58L885.166 566.364ZM899.024 577.636L897.32 588H893.922L896.831 570.545H900.093L899.615 573.386H899.831C900.384 572.455 901.138 571.712 902.093 571.159C903.055 570.598 904.191 570.318 905.502 570.318C906.684 570.318 907.676 570.568 908.479 571.068C909.29 571.561 909.862 572.295 910.195 573.273C910.536 574.25 910.589 575.458 910.354 576.898L908.49 588H905.093L906.877 577.307C907.081 576.042 906.915 575.053 906.377 574.341C905.846 573.621 905.002 573.261 903.843 573.261C903.055 573.261 902.324 573.432 901.649 573.773C900.983 574.114 900.418 574.614 899.956 575.273C899.502 575.924 899.191 576.712 899.024 577.636ZM922.113 588.352C920.401 588.352 918.984 587.985 917.863 587.25C916.749 586.508 915.969 585.466 915.522 584.125C915.075 582.777 915.003 581.197 915.306 579.386C915.602 577.598 916.196 576.023 917.09 574.659C917.984 573.295 919.098 572.231 920.431 571.466C921.772 570.701 923.253 570.318 924.874 570.318C925.859 570.318 926.787 570.481 927.659 570.807C928.537 571.133 929.284 571.644 929.897 572.341C930.511 573.038 930.935 573.943 931.17 575.057C931.412 576.163 931.405 577.508 931.147 579.091L930.954 580.295H917.068L917.465 577.75H928.011C928.17 576.856 928.128 576.064 927.886 575.375C927.643 574.678 927.227 574.129 926.636 573.727C926.052 573.326 925.318 573.125 924.431 573.125C923.522 573.125 922.674 573.364 921.886 573.841C921.098 574.318 920.439 574.928 919.909 575.67C919.386 576.405 919.056 577.163 918.92 577.943L918.522 580.273C918.325 581.545 918.359 582.568 918.624 583.341C918.897 584.114 919.374 584.674 920.056 585.023C920.738 585.371 921.59 585.545 922.613 585.545C923.272 585.545 923.882 585.455 924.443 585.273C925.011 585.083 925.515 584.807 925.954 584.443C926.393 584.072 926.761 583.61 927.056 583.057L930.17 583.636C929.753 584.583 929.155 585.413 928.374 586.125C927.594 586.83 926.674 587.379 925.613 587.773C924.56 588.159 923.393 588.352 922.113 588.352ZM950.364 574.807L947.193 575.352C947.125 574.951 946.985 574.572 946.773 574.216C946.568 573.86 946.254 573.572 945.83 573.352C945.405 573.125 944.841 573.011 944.136 573.011C943.159 573.011 942.303 573.235 941.568 573.682C940.841 574.129 940.424 574.697 940.318 575.386C940.22 575.947 940.352 576.402 940.716 576.75C941.08 577.091 941.72 577.375 942.636 577.602L945.318 578.239C946.864 578.61 947.97 579.189 948.636 579.977C949.311 580.758 949.545 581.773 949.341 583.023C949.167 584.061 948.712 584.981 947.977 585.784C947.25 586.587 946.318 587.216 945.182 587.67C944.045 588.125 942.78 588.352 941.386 588.352C939.402 588.352 937.856 587.932 936.75 587.091C935.644 586.25 935.076 585.061 935.045 583.523L938.409 583.023C938.47 583.879 938.777 584.527 939.33 584.966C939.89 585.398 940.667 585.614 941.659 585.614C942.795 585.621 943.746 585.383 944.511 584.898C945.277 584.413 945.712 583.826 945.818 583.136C945.909 582.598 945.788 582.152 945.455 581.795C945.129 581.439 944.553 581.167 943.727 580.977L940.909 580.33C939.333 579.958 938.22 579.36 937.568 578.534C936.917 577.708 936.697 576.67 936.909 575.42C937.076 574.398 937.508 573.508 938.205 572.75C938.909 571.985 939.799 571.39 940.875 570.966C941.951 570.534 943.14 570.318 944.443 570.318C946.345 570.318 947.773 570.727 948.727 571.545C949.682 572.356 950.227 573.443 950.364 574.807ZM969.12 574.807L965.949 575.352C965.881 574.951 965.741 574.572 965.529 574.216C965.324 573.86 965.01 573.572 964.586 573.352C964.162 573.125 963.597 573.011 962.893 573.011C961.915 573.011 961.059 573.235 960.324 573.682C959.597 574.129 959.18 574.697 959.074 575.386C958.976 575.947 959.109 576.402 959.472 576.75C959.836 577.091 960.476 577.375 961.393 577.602L964.074 578.239C965.62 578.61 966.726 579.189 967.393 579.977C968.067 580.758 968.302 581.773 968.097 583.023C967.923 584.061 967.468 584.981 966.734 585.784C966.006 586.587 965.074 587.216 963.938 587.67C962.802 588.125 961.537 588.352 960.143 588.352C958.158 588.352 956.612 587.932 955.506 587.091C954.4 586.25 953.832 585.061 953.802 583.523L957.165 583.023C957.226 583.879 957.533 584.527 958.086 584.966C958.646 585.398 959.423 585.614 960.415 585.614C961.552 585.621 962.502 585.383 963.268 584.898C964.033 584.413 964.468 583.826 964.574 583.136C964.665 582.598 964.544 582.152 964.211 581.795C963.885 581.439 963.309 581.167 962.484 580.977L959.665 580.33C958.09 579.958 956.976 579.36 956.324 578.534C955.673 577.708 955.453 576.67 955.665 575.42C955.832 574.398 956.264 573.508 956.961 572.75C957.665 571.985 958.555 571.39 959.631 570.966C960.707 570.534 961.896 570.318 963.199 570.318C965.101 570.318 966.529 570.727 967.484 571.545C968.438 572.356 968.984 573.443 969.12 574.807Z" fill="black"/>
<path d="M455.908 648V614.545H469.303C471.764 614.545 473.817 614.91 475.461 615.64C477.105 616.37 478.341 617.382 479.169 618.678C479.997 619.963 480.411 621.444 480.411 623.121C480.411 624.428 480.149 625.577 479.626 626.568C479.104 627.548 478.385 628.354 477.47 628.986C476.566 629.607 475.532 630.048 474.366 630.309V630.636C475.641 630.69 476.833 631.049 477.944 631.714C479.066 632.378 479.975 633.309 480.672 634.507C481.369 635.694 481.717 637.11 481.717 638.754C481.717 640.529 481.276 642.114 480.394 643.508C479.523 644.891 478.232 645.985 476.523 646.791C474.813 647.597 472.706 648 470.201 648H455.908ZM462.981 642.217H468.747C470.718 642.217 472.156 641.842 473.06 641.09C473.964 640.328 474.415 639.315 474.415 638.052C474.415 637.126 474.192 636.309 473.746 635.602C473.299 634.894 472.662 634.338 471.835 633.935C471.018 633.532 470.043 633.331 468.911 633.331H462.981V642.217ZM462.981 628.545H468.224C469.194 628.545 470.054 628.376 470.805 628.038C471.568 627.69 472.167 627.2 472.602 626.568C473.049 625.937 473.272 625.18 473.272 624.298C473.272 623.089 472.842 622.114 471.982 621.374C471.132 620.633 469.923 620.263 468.355 620.263H462.981V628.545ZM486.32 648V614.545H508.862V620.377H493.393V628.349H507.703V634.18H493.393V642.168H508.928V648H486.32ZM544.004 626.258H536.849C536.718 625.332 536.451 624.51 536.048 623.791C535.645 623.062 535.128 622.441 534.496 621.929C533.865 621.417 533.135 621.025 532.308 620.753C531.491 620.481 530.603 620.344 529.645 620.344C527.913 620.344 526.405 620.775 525.12 621.635C523.835 622.484 522.839 623.726 522.131 625.359C521.423 626.982 521.069 628.953 521.069 631.273C521.069 633.658 521.423 635.661 522.131 637.284C522.849 638.907 523.851 640.132 525.136 640.96C526.421 641.787 527.908 642.201 529.596 642.201C530.543 642.201 531.42 642.076 532.226 641.825C533.043 641.575 533.767 641.21 534.398 640.731C535.03 640.241 535.553 639.647 535.967 638.95C536.391 638.253 536.685 637.458 536.849 636.565L544.004 636.598C543.818 638.134 543.356 639.615 542.615 641.041C541.885 642.457 540.9 643.726 539.658 644.847C538.428 645.958 536.958 646.84 535.248 647.494C533.549 648.136 531.627 648.457 529.482 648.457C526.498 648.457 523.83 647.782 521.477 646.432C519.136 645.081 517.285 643.127 515.923 640.567C514.573 638.008 513.898 634.91 513.898 631.273C513.898 627.625 514.584 624.521 515.956 621.962C517.328 619.402 519.19 617.453 521.543 616.114C523.895 614.763 526.541 614.088 529.482 614.088C531.42 614.088 533.217 614.36 534.872 614.905C536.538 615.449 538.014 616.244 539.299 617.29C540.584 618.324 541.629 619.593 542.435 621.096C543.252 622.599 543.775 624.319 544.004 626.258ZM579.819 631.273C579.819 634.921 579.127 638.025 577.744 640.584C576.372 643.143 574.499 645.098 572.125 646.448C569.761 647.788 567.104 648.457 564.153 648.457C561.18 648.457 558.512 647.782 556.149 646.432C553.786 645.081 551.918 643.127 550.546 640.567C549.174 638.008 548.488 634.91 548.488 631.273C548.488 627.625 549.174 624.521 550.546 621.962C551.918 619.402 553.786 617.453 556.149 616.114C558.512 614.763 561.18 614.088 564.153 614.088C567.104 614.088 569.761 614.763 572.125 616.114C574.499 617.453 576.372 619.402 577.744 621.962C579.127 624.521 579.819 627.625 579.819 631.273ZM572.647 631.273C572.647 628.91 572.293 626.917 571.586 625.294C570.889 623.671 569.903 622.441 568.629 621.602C567.355 620.764 565.863 620.344 564.153 620.344C562.443 620.344 560.951 620.764 559.677 621.602C558.403 622.441 557.412 623.671 556.704 625.294C556.007 626.917 555.659 628.91 555.659 631.273C555.659 633.636 556.007 635.629 556.704 637.251C557.412 638.874 558.403 640.105 559.677 640.943C560.951 641.782 562.443 642.201 564.153 642.201C565.863 642.201 567.355 641.782 568.629 640.943C569.903 640.105 570.889 638.874 571.586 637.251C572.293 635.629 572.647 633.636 572.647 631.273ZM585.058 614.545H593.781L602.994 637.023H603.386L612.599 614.545H621.322V648H614.461V626.225H614.184L605.526 647.837H600.854L592.197 626.143H591.919V648H585.058V614.545ZM627.15 648V614.545H649.692V620.377H634.223V628.349H648.533V634.18H634.223V642.168H649.758V648H627.15ZM664.002 614.545H671.925L679.553 628.953H679.88L687.509 614.545H695.431L683.229 636.173V648H676.205V636.173L664.002 614.545ZM728.016 631.273C728.016 634.921 727.324 638.025 725.941 640.584C724.569 643.143 722.696 645.098 720.322 646.448C717.959 647.788 715.302 648.457 712.35 648.457C709.377 648.457 706.709 647.782 704.346 646.432C701.983 645.081 700.115 643.127 698.743 640.567C697.371 638.008 696.685 634.91 696.685 631.273C696.685 627.625 697.371 624.521 698.743 621.962C700.115 619.402 701.983 617.453 704.346 616.114C706.709 614.763 709.377 614.088 712.35 614.088C715.302 614.088 717.959 614.763 720.322 616.114C722.696 617.453 724.569 619.402 725.941 621.962C727.324 624.521 728.016 627.625 728.016 631.273ZM720.845 631.273C720.845 628.91 720.491 626.917 719.783 625.294C719.086 623.671 718.1 622.441 716.826 621.602C715.552 620.764 714.06 620.344 712.35 620.344C710.641 620.344 709.149 620.764 707.874 621.602C706.6 622.441 705.609 623.671 704.901 625.294C704.204 626.917 703.856 628.91 703.856 631.273C703.856 633.636 704.204 635.629 704.901 637.251C705.609 638.874 706.6 640.105 707.874 640.943C709.149 641.782 710.641 642.201 712.35 642.201C714.06 642.201 715.552 641.782 716.826 640.943C718.1 640.105 719.086 638.874 719.783 637.251C720.491 635.629 720.845 633.636 720.845 631.273ZM753.919 614.545H760.993V636.271C760.993 638.711 760.41 640.845 759.245 642.675C758.09 644.504 756.473 645.931 754.393 646.955C752.313 647.967 749.89 648.474 747.124 648.474C744.347 648.474 741.918 647.967 739.838 646.955C737.758 645.931 736.141 644.504 734.987 642.675C733.833 640.845 733.255 638.711 733.255 636.271V614.545H740.328V635.667C740.328 636.941 740.606 638.074 741.162 639.065C741.728 640.056 742.523 640.834 743.547 641.401C744.57 641.967 745.763 642.25 747.124 642.25C748.496 642.25 749.689 641.967 750.701 641.401C751.725 640.834 752.515 640.056 753.07 639.065C753.636 638.074 753.919 636.941 753.919 635.667V614.545ZM766.812 648V614.545H780.011C782.537 614.545 784.694 614.997 786.48 615.901C788.276 616.794 789.643 618.063 790.58 619.707C791.527 621.341 792.001 623.263 792.001 625.474C792.001 627.695 791.522 629.607 790.563 631.207C789.605 632.797 788.217 634.017 786.398 634.866C784.59 635.716 782.401 636.141 779.831 636.141H770.994V630.456H778.688C780.038 630.456 781.16 630.271 782.053 629.901C782.946 629.53 783.61 628.975 784.046 628.234C784.492 627.494 784.715 626.574 784.715 625.474C784.715 624.363 784.492 623.426 784.046 622.664C783.61 621.902 782.94 621.325 782.036 620.933C781.143 620.53 780.016 620.328 778.655 620.328H773.885V648H766.812ZM784.879 632.776L793.193 648H785.385L777.25 632.776H784.879ZM807.646 648V614.545H821.041C823.502 614.545 825.555 614.91 827.199 615.64C828.844 616.37 830.08 617.382 830.907 618.678C831.735 619.963 832.149 621.444 832.149 623.121C832.149 624.428 831.887 625.577 831.365 626.568C830.842 627.548 830.123 628.354 829.208 628.986C828.305 629.607 827.27 630.048 826.105 630.309V630.636C827.379 630.69 828.571 631.049 829.682 631.714C830.804 632.378 831.713 633.309 832.41 634.507C833.107 635.694 833.456 637.11 833.456 638.754C833.456 640.529 833.015 642.114 832.132 643.508C831.261 644.891 829.971 645.985 828.261 646.791C826.551 647.597 824.444 648 821.939 648H807.646ZM814.719 642.217H820.485C822.457 642.217 823.894 641.842 824.798 641.09C825.702 640.328 826.154 639.315 826.154 638.052C826.154 637.126 825.931 636.309 825.484 635.602C825.038 634.894 824.4 634.338 823.573 633.935C822.756 633.532 821.781 633.331 820.649 633.331H814.719V642.217ZM814.719 628.545H819.963C820.932 628.545 821.792 628.376 822.544 628.038C823.306 627.69 823.905 627.2 824.341 626.568C824.787 625.937 825.01 625.18 825.01 624.298C825.01 623.089 824.58 622.114 823.72 621.374C822.87 620.633 821.662 620.263 820.093 620.263H814.719V628.545ZM838.058 648V614.545H860.601V620.377H845.131V628.349H859.441V634.18H845.131V642.168H860.666V648H838.058ZM884.373 624.167C884.242 622.849 883.681 621.826 882.69 621.096C881.699 620.366 880.354 620.001 878.655 620.001C877.501 620.001 876.526 620.165 875.731 620.491C874.936 620.807 874.326 621.248 873.902 621.815C873.488 622.381 873.281 623.023 873.281 623.742C873.259 624.341 873.384 624.864 873.657 625.31C873.94 625.757 874.326 626.143 874.816 626.47C875.306 626.786 875.873 627.064 876.515 627.303C877.158 627.532 877.844 627.728 878.574 627.891L881.579 628.61C883.038 628.937 884.378 629.372 885.598 629.917C886.817 630.461 887.874 631.131 888.767 631.926C889.66 632.721 890.351 633.658 890.841 634.736C891.342 635.814 891.598 637.05 891.609 638.444C891.598 640.491 891.075 642.266 890.041 643.769C889.017 645.261 887.536 646.421 885.598 647.249C883.67 648.065 881.345 648.474 878.623 648.474C875.922 648.474 873.569 648.06 871.566 647.232C869.573 646.405 868.016 645.179 866.894 643.557C865.783 641.923 865.2 639.903 865.146 637.496H871.99C872.067 638.618 872.388 639.555 872.954 640.306C873.531 641.047 874.299 641.607 875.257 641.989C876.227 642.359 877.321 642.544 878.541 642.544C879.739 642.544 880.779 642.37 881.661 642.021C882.554 641.673 883.245 641.188 883.735 640.567C884.225 639.947 884.471 639.233 884.471 638.428C884.471 637.676 884.247 637.045 883.801 636.533C883.365 636.021 882.723 635.585 881.873 635.226C881.035 634.866 880.006 634.54 878.786 634.246L875.143 633.331C872.323 632.645 870.096 631.572 868.462 630.113C866.828 628.654 866.017 626.688 866.028 624.216C866.017 622.19 866.556 620.421 867.645 618.907C868.745 617.393 870.253 616.212 872.17 615.362C874.087 614.513 876.265 614.088 878.704 614.088C881.187 614.088 883.354 614.513 885.206 615.362C887.068 616.212 888.516 617.393 889.551 618.907C890.585 620.421 891.119 622.174 891.152 624.167H884.373ZM895.093 620.377V614.545H922.568V620.377H912.326V648H905.335V620.377H895.093Z" fill="black"/>
<path d="M937.364 614.545H947.377L955.872 635.259H956.264L964.758 614.545H974.772V648H966.898V627.45H966.62L958.583 647.788H953.552L945.515 627.336H945.238V648H937.364V614.545ZM979.815 648V614.545H1003.14V621.112H987.901V627.973H1001.95V634.556H987.901V641.433H1003.14V648H979.815Z" fill="#30BCF3"/>
<defs>
<linearGradient id="paint0_linear_28_13" x1="750.637" y1="474.599" x2="750.637" y2="547.599" gradientUnits="userSpaceOnUse">
<stop stop-color="#38BFF6"/>
<stop offset="1" stop-color="#88E0FF"/>
</linearGradient>
<linearGradient id="paint1_linear_28_13" x1="758" y1="381" x2="758" y2="472" gradientUnits="userSpaceOnUse">
<stop/>
<stop offset="1" stop-color="#737373"/>
</linearGradient>
</defs>
</svg>
