<svg width="1024" height="335" viewBox="0 89 1024 335" fill="none" xmlns="http://www.w3.org/2000/svg">
<path d="M410.124 156.013C417.681 154.709 431.624 155.636 434.443 164.274C437.181 172.662 429.234 181.498 423.739 186.945C410.032 200.534 393.39 211.046 376.36 219.967L375.789 219.677L375.136 220.347L375.562 220.312L375.54 219.88L375.199 220.407L375.461 220.322L375.443 219.935L375.123 220.371L375.931 220.133C375.732 219.296 380.873 215.929 381.9 215.243C401.532 202.13 439.121 168.368 383.59 184.141C352.273 193.037 321.43 206.983 291.134 220.019L202.338 258.308C177.84 268.966 152.15 280.633 127.231 290.152C100.1 300.516 62.5833 315.059 33.8963 317.481C18.2153 318.948 -3.22875 313.147 12.4963 293.734C24.3423 279.109 43.1793 266.96 59.0223 257.231C60.5452 256.295 65.0653 253.193 66.4823 253.033C60.3053 258.99 24.2403 282.761 29.4823 292.277C44.0933 303.498 150.111 257.428 169.488 249.199L290.52 196.683C312.645 187.131 336.665 177.983 359.119 169.236C372.649 163.965 395.971 157.617 410.124 156.013Z" fill="#303239"/>
<path d="M210.917 207.394C232.566 182.72 252.79 157.795 277.797 136.36C284.005 131.038 290.098 124.715 297.48 121.072L299.27 122.067C307.615 127.39 310.808 139.133 312.826 148.206C309.264 150.083 305.989 152.492 302.684 154.8C290.395 165.134 279.085 174.305 267.484 185.545C261.527 191.317 247.886 207.768 241.893 211.36C233.372 216.468 210.502 226.548 201.088 229.946C198.301 231.412 194.773 232.688 191.793 233.856C186.183 228.727 183.2 223.609 178.583 218.189C168.487 206.338 153.444 186.185 141.043 177.251C143.432 167.563 145.948 155.498 153.038 148.198C161.355 148.684 167.678 155.828 172.929 161.841C179.589 169.469 189.011 180.84 194.357 189.277C197.152 190.95 212.193 213.87 218.067 218.754C216.121 214.709 213.723 210.898 210.917 207.394Z" fill="#38BFF6"/>
<path d="M153.038 148.198C161.355 148.684 167.678 155.828 172.929 161.841C179.589 169.469 189.011 180.84 194.357 189.277C192.516 188.427 192.455 188.242 191.405 186.496C187.199 186.645 176.396 206.021 173.223 210.064L173.588 210.442C177.954 215.049 188.157 229.897 192.096 232.404C195.614 232.104 199.858 228.827 201.056 229.553L201.088 229.946C198.301 231.412 194.773 232.688 191.793 233.856C186.183 228.727 183.2 223.609 178.583 218.189C168.487 206.338 153.444 186.185 141.043 177.251C143.432 167.563 145.948 155.498 153.038 148.198Z" fill="#38BFF6"/>
<path fill-rule="evenodd" clip-rule="evenodd" d="M271.375 261.607C275.524 261.601 279.668 261.625 283.707 261.719C285.053 261.75 286.388 261.789 287.707 261.837C285.128 278.64 282.333 295.409 279.324 312.14C277.784 327.332 272.868 345.689 269.359 360.708C268.296 365.257 265.179 381.297 263.685 384.404C263.618 384.933 263.526 385.498 263.419 386.082C263.365 386.374 263.307 386.67 263.247 386.969C262.946 388.464 262.579 390.02 262.293 391.357C261.756 391.352 261.213 391.349 260.667 391.35C256.843 391.354 252.816 391.477 248.812 391.567C244.234 391.669 239.686 391.726 235.502 391.509C237.68 379.36 238.977 367.046 241.205 355.086C241.319 346.714 248.642 318.107 247.273 312.049L246.64 311.73C241.058 319.434 233.243 330.535 227.241 337.621C218.474 349.889 209.443 361.966 200.155 373.844C194.824 373.765 188.227 373.82 182.998 373.496C178.388 361.41 172.183 348.346 167.094 336.275C164.242 329.509 158.491 315.096 155.055 309.516C151.609 332.131 149.02 354.877 145.303 377.459C144.842 380.259 144.469 383.113 143.838 385.881C143.728 387.59 143.245 390.211 142.978 391.978C132.891 391.797 122.461 391.892 112.347 391.865C112.795 385.969 116.02 366.823 117.393 359.43C118.02 354.323 117.991 354.298 118.338 351.973C121.135 333.232 124.935 314.545 127.207 295.735C134.299 293.287 141.323 290.648 148.271 287.821C155.183 284.961 163.312 281.254 170.298 278.975C179.552 297.789 188.441 316.78 196.962 335.937C201.428 331.556 206.328 323.769 210.656 318.7L211.342 317.663C213 315.21 215.046 312.551 216.857 310.348C226.642 298.44 235.795 285.429 245.762 273.725C246.908 272.182 248.033 270.663 249.165 269.157L250.3 267.656C251.818 265.66 253.361 263.682 254.992 261.698C257.648 261.687 260.361 261.666 263.102 261.647C265.842 261.628 268.61 261.611 271.375 261.607Z" fill="#303239"/>
<path d="M309.073 217.921C319.858 213.187 330.782 208.777 341.83 204.696C339.301 218.997 336.179 232.116 332.401 246.131C331.662 248.871 329.239 258.939 328.135 261.279C325.782 271.251 322.174 280.966 318.836 290.595C307.255 323.998 291.925 356.61 275.814 388.04C272.935 393.658 266.707 408.048 263.209 411.904C270.236 386.828 275.99 362.486 282.11 337.254L296.162 279.577C299.088 267.068 302.084 254.592 304.245 241.925C304.757 238.922 305.459 233.751 306.381 231.019C306.838 226.828 307.773 221.925 309.073 217.921Z" fill="#38BFF6"/>
<path d="M309.073 217.921C319.858 213.187 330.782 208.777 341.83 204.696C339.301 218.997 336.179 232.116 332.401 246.131C331.662 248.871 329.239 258.939 328.135 261.279L327.165 260.886C328.64 256.977 335.315 232.683 335.735 228.799C333.366 228.962 326.797 226.877 324.81 225.647C321.83 223.802 318.813 220.35 315.818 218.283C315.216 217.868 315.578 216.69 315.66 216.081L309.57 218.844C308.885 222.046 307.8 228.384 306.381 231.019C306.838 226.828 307.773 221.925 309.073 217.921Z" fill="#38BFF6"/>
<path d="M100.285 255.928C101.946 242.289 103.517 228.639 104.997 214.979C105.789 207.033 109.258 160.012 111.281 155.632C118.92 149.304 142.93 147.278 153.038 148.198C145.948 155.498 143.432 167.563 141.043 177.251C140.364 179.684 138.509 199.323 137.975 203.675C136.378 216.661 134.587 229.47 132.139 242.477C131.068 248.168 130.484 254.795 129.278 260.502C123.7 262.642 118.153 264.861 112.639 267.158C107.91 268.947 103.161 270.68 98.3914 272.356C98.6594 266.763 99.5083 261.465 100.285 255.928Z" fill="#38BFF6"/>
<path d="M98.3914 272.356C98.6594 266.763 99.5083 261.465 100.285 255.928C100.465 256.564 100.691 257.36 100.961 258.315C103.917 261.462 109.758 264.321 112.639 267.158C107.91 268.947 103.161 270.68 98.3914 272.356Z" fill="#38BFF6"/>
<path d="M214.245 101.043C232.358 100.12 247.803 114.026 248.78 132.136C249.756 150.247 235.895 165.733 217.788 166.762C199.605 167.795 184.041 153.864 183.061 135.679C182.081 117.494 196.057 101.971 214.245 101.043Z" fill="#484953"/>
<path d="M297.48 121.072C311.481 115.491 337.365 110.443 343.29 128.993C346.893 140.275 347.043 156.618 346.542 168.524C335.561 172.897 324.76 176.766 313.704 181.273C313.737 172.818 314.081 156.031 312.826 148.206C310.808 139.133 307.615 127.39 299.27 122.067L297.48 121.072Z" fill="#38BFF6"/>
<path fill-rule="evenodd" clip-rule="evenodd" d="M334.462 261.522C356.565 261.839 378.83 261.201 400.799 261.615C399.374 270.218 397.598 279.128 396.384 287.691L351.23 287.422C344.066 287.412 333.869 287.124 326.85 287.673C325.144 296.657 323.3 305.16 322.18 314.279C342.401 314.119 361.946 313.767 382.25 313.92C381.363 322.278 379.626 330.385 378.794 338.997L317.804 338.855C317.266 345.736 314.429 360.156 313.232 367.451C334.055 368.654 363.762 367.52 385.23 367.314C384.289 375.029 382.477 384.122 381.095 391.796C347.556 391.911 314.016 391.765 280.48 391.356C294.319 365.527 306.672 338.928 317.478 311.691C320.737 303.351 323.793 296.002 326.435 287.428C328.598 279.152 332.061 270.441 334.462 261.522Z" fill="#303239"/>
<path d="M115.488 300.934L115.817 301.714C108.84 327.729 84.5642 386.341 68.5302 406.906L68.1193 406.593C68.6763 403.638 71.0602 397.232 72.0482 393.833C74.6322 384.881 77.0253 375.876 79.2273 366.823C82.1593 354.524 84.5863 341.576 87.1013 329.171C88.4913 322.313 89.2833 315.813 90.8993 308.864C99.1113 306.27 107.308 303.627 115.488 300.934Z" fill="#38BFF6"/>
<path d="M973 219H495.711L485 292H962.289L973 219Z" fill="url(#paint0_linear_36_21)"/>
<path d="M1017.5 125.5H460.5L448 216.5H1005L1017.5 125.5Z" fill="url(#paint1_linear_36_21)"/>
<path d="M884.553 233.48C884.943 235.142 884.554 236.505 884.279 238.211C884.035 239.897 884.052 240.844 883.106 242.267C879.526 242.801 863.244 242.45 858.701 242.468C858.234 245.369 857.935 248.569 857.601 251.514L879.081 251.553C879.023 254.155 878.784 256.886 878.604 259.494C870.707 259.68 864.071 259.813 856.142 259.594C855.579 262.448 855.322 266.316 855.047 269.289C863.51 269.272 871.929 269.015 880.461 269.035C880.202 271.873 880.064 274.898 879.89 277.76C866.686 277.885 853.482 277.944 840.278 277.936C841.874 264.756 845.021 247.017 847.184 233.699C856.564 234.004 875.195 234.065 884.553 233.48Z" fill="white"/>
<path d="M648.636 234.02C653.079 233.91 657.793 233.995 662.258 234.001C664.811 240.29 670.706 249.835 674.391 255.634C680.371 248.666 686.802 241.405 692.518 234.267C696.706 233.876 701.022 233.987 705.236 234.005C703.105 247.837 701.367 264.338 698.786 277.633L687.335 277.71C687.886 273.319 688.28 269.166 688.939 264.75C689.25 260.793 690.113 255.431 690.636 251.385C669.318 271.236 676.454 279.781 658.101 250.326C657.045 259.47 655.932 268.607 654.762 277.737L642.045 277.632C644.4 266.295 647.591 245.503 648.636 234.02Z" fill="white"/>
<path d="M582.882 233.947L595.817 234.006C599.554 241 603.559 249.248 607.83 255.745C613.889 248.461 620.103 241.307 626.468 234.288C630.465 233.887 634.733 234 638.773 234.016C636.519 246.742 633.784 264.775 632.326 277.624C628.347 277.709 624.138 277.575 620.142 277.515C620.65 272.907 621.292 269.114 622.11 264.573C622.832 260.135 623.488 255.687 624.075 251.23C604.86 269.336 608.998 281.22 592.241 250.442C590.936 258.757 589.034 269.31 588.39 277.58L576.021 277.542C578.129 263.047 581.097 248.492 582.882 233.947Z" fill="white"/>
<path d="M739.801 233.739C743.535 233.657 747.596 233.782 751.356 233.826C755.948 242.287 762.914 252.824 769.02 260.141C770.194 251.243 771.51 242.804 772.466 233.819L785.253 234.033C785.216 234.388 785.179 234.743 785.141 235.099C782.628 249.095 780.867 263.246 778.273 277.211C777.991 277.43 777.709 277.649 777.426 277.869L766.431 277.865C761.779 269.902 753.736 258.958 748.31 251.121C746.78 259.887 745.431 268.684 744.261 277.505L731.818 277.475C734.641 263.832 735.875 248.077 738.812 234.336L739.801 233.739Z" fill="white"/>
<path d="M814.908 233.19C822.224 232.503 829.6 233.497 836.474 236.094C835.436 238.969 834.416 241.851 833.413 244.739C828.273 242.801 826.701 242.364 820.714 241.989C807.964 241.189 795.761 256.581 806.105 266.866C809.574 270.315 816.044 269.873 820.964 269.398C821.476 266.3 822.196 262.772 822.184 259.653C822.179 258.329 818.981 257.429 819.015 255.118C821.036 253.233 826.058 253.715 828.865 253.751L835.309 253.961C834.365 261.262 833.035 268.552 831.778 275.809C829.053 276.637 826.279 277.29 823.471 277.764C810.339 280.064 791.058 278.647 789.09 261.854C788.36 255.469 790.185 249.054 794.166 244.009C799.507 237.302 806.559 234.2 814.908 233.19Z" fill="white"/>
<path d="M536.458 233.943L574.416 233.98C574.034 236.944 573.405 239.59 572.755 242.502C564.6 242.421 556.445 242.423 548.291 242.509C547.756 245.424 547.314 248.523 546.85 251.466C554.104 251.36 561.611 251.492 568.884 251.526C568.555 254.189 568.196 256.849 567.809 259.504C560.542 259.697 553.057 259.663 545.771 259.713C545.03 262.832 544.702 265.956 544.296 269.135C552.68 269.043 561.065 269.026 569.449 269.084L568.946 277.703C557.107 278.253 542.282 277.722 530.059 277.829C531.571 263.939 534.36 247.917 536.458 233.943Z" fill="white"/>
<path d="M715.71 233.968C719.962 233.856 724.588 233.994 728.869 234.038C726.338 248.018 724.158 263.292 722.089 277.404L708.771 277.706C711.3 264.354 714.188 247.431 715.71 233.968Z" fill="white"/>
<path fill-rule="evenodd" clip-rule="evenodd" d="M904.257 233.544C918.038 233.723 939.406 231.793 932.924 252.978C928.556 258.293 927.879 258.214 922.172 261.5C925.569 267.01 929.08 272.449 932.703 277.813C928.139 277.958 923.575 278.07 919.01 278.151L918.351 277.94C917.642 276.174 916.896 275.195 915.84 273.597C914.124 271 915.5 273 913.5 270L909 262.5C906.5 262.5 906 262.5 901.5 263C901 265 901.29 268 899.734 276.112C899.58 276.915 899.624 276.59 898.966 277.354C895.489 277.845 890.167 277.648 886.522 277.626C888.715 266.37 892.319 246.368 893.189 235.145L893.831 234.09C896.881 233.407 901.033 233.502 904.257 233.544ZM905.18 242.067C904.622 246.292 904.026 250.511 903.392 254.725C908.377 254.917 912.709 255.446 917.464 253.799C928.892 243.08 912.252 241.946 905.18 242.067Z" fill="white"/>
<path d="M507.008 142.753C511.728 142.694 516.448 142.7 521.168 142.769C527.018 151.89 531.802 161.506 537.604 170.649C545.049 163.3 554.841 151.381 562.678 143.064C568.13 142.962 573.584 142.971 579.036 143.089C575.988 161.737 572.651 180.379 569.855 199.049C564.691 199.266 559.674 199.163 554.513 199.094C555.027 192.439 556.232 186.182 557.386 179.616C558.068 174.547 558.829 169.488 559.669 164.443C553.398 170.697 545.299 180.593 539.475 187.449C536.588 187.503 533.539 187.378 530.64 187.313C526.453 179.796 521.376 170.523 516.662 163.494C515.509 175.872 513.818 187.133 512.194 199.432C507.012 199.495 501.593 199.396 496.392 199.369C497.704 191.299 503.035 147.653 505.286 143.03L507.008 142.753Z" fill="white"/>
<path d="M725.18 142.872C730.564 142.834 736.102 142.932 741.499 142.964C739.925 150.272 734.432 197.524 731.896 199.325C726.783 199.408 721.668 199.36 716.557 199.181C717.243 191.45 719.046 184.118 719.669 176.465L694.726 176.365C693.512 183.93 692.393 191.509 691.371 199.102C685.49 199.383 680.915 199.331 675.085 199.084C676.797 182.683 680.964 159.571 683.668 142.941L700.235 142.987C699.607 150.565 697.755 156.833 697.443 165.181C705.449 165.001 713.75 165.075 721.78 165.041C723.104 159.494 724.529 148.687 725.18 142.872Z" fill="white"/>
<path d="M924.066 143.039C940.488 142.896 956.912 142.902 973.334 143.058C972.336 146.625 971.699 150.737 971.039 154.421L939.181 154.265C938.496 158.385 938.149 161.294 937.83 165.463L965.059 165.588L964.25 176.213C954.749 176.421 945.245 176.506 935.741 176.468C934.617 179.93 934.056 184.395 933.753 188.011C944.491 187.861 955.447 187.927 966.201 187.898L965.126 199.274C948.489 199.356 931.851 199.344 915.213 199.237C918.32 181.997 921.887 160.343 924.066 143.039Z" fill="white"/>
<path d="M754.155 142.899C767.011 142.674 790.78 142.374 803.367 143.285L801.589 154.071C790.679 154.238 779.767 154.23 768.857 154.047C768.471 157.869 768.148 161.697 767.885 165.53L795.188 165.481L793.73 176.104C784.639 176.265 775.546 176.353 766.454 176.368L765.763 176.713C764.794 179.514 764.324 184.493 763.919 187.617C774.764 187.537 785.609 187.545 796.454 187.642C795.784 191.515 795.326 195.166 794.847 199.069C778.518 199.209 762.189 199.199 745.86 199.041C748.504 183.144 752.805 158.024 754.155 142.899Z" fill="white"/>
<path d="M650.909 141.71C659.537 141.105 666.28 142.804 674.314 145.552L670.98 157.077C662.713 153.82 653.917 152.188 645.278 155.043C640.304 156.687 635.73 159.808 633.448 164.653C631.293 169.229 631.114 175.459 633.055 180.139C639.604 195.933 663.682 184.332 665.932 185.272L666.318 187.07C666.777 190.252 667.066 193.673 667.392 196.892C601.483 216.759 597.286 145.703 650.909 141.71Z" fill="white"/>
<path d="M868.699 142.904C874.19 142.862 879.681 142.918 885.17 143.072C883.178 157.395 879.414 173.428 878.299 187.623C888.63 187.399 899.412 187.554 909.775 187.557C909.375 190.094 908.491 197.301 907.411 199.145C891.724 199.173 875.61 199.542 859.98 199.046C862.492 180.267 866.494 161.018 868.699 142.904Z" fill="white"/>
<path d="M814.175 142.984C819.618 142.951 825.06 142.997 830.501 143.12C827.858 157.638 825.646 172.927 823.357 187.552L853.888 187.531C853.256 191.357 852.586 195.176 851.876 198.988C836.674 199.368 820.512 199.251 805.269 199.172C805.701 193.355 807.621 183.131 808.57 177.138C810.334 165.992 812.069 154.032 814.175 142.984Z" fill="white"/>
<path d="M592.152 143.093C597.907 143.013 603.097 142.948 608.861 143.217C606.195 161.617 602.544 180.461 599.765 199.132C594.492 199.352 589.123 199.241 583.839 199.199C584.338 191.872 586.04 182.024 587.179 174.719C588.764 164.166 590.422 153.624 592.152 143.093Z" fill="white"/>
<path d="M494.102 332L497.966 308.727H506.261C508.064 308.727 509.504 309.057 510.58 309.716C511.663 310.375 512.405 311.273 512.807 312.409C513.216 313.545 513.303 314.83 513.068 316.261C512.826 317.693 512.311 318.981 511.523 320.125C510.742 321.261 509.701 322.163 508.398 322.83C507.095 323.489 505.545 323.818 503.75 323.818H498.034L498.523 320.841H503.909C505.053 320.841 506.015 320.644 506.795 320.25C507.583 319.848 508.201 319.303 508.648 318.614C509.095 317.917 509.386 317.133 509.523 316.261C509.667 315.375 509.629 314.595 509.409 313.92C509.189 313.239 508.754 312.705 508.102 312.318C507.458 311.932 506.557 311.739 505.398 311.739H500.989L497.614 332H494.102ZM523.094 332.352C521.382 332.352 519.966 331.985 518.844 331.25C517.731 330.508 516.95 329.466 516.503 328.125C516.056 326.777 515.984 325.197 516.288 323.386C516.583 321.598 517.178 320.023 518.072 318.659C518.966 317.295 520.079 316.231 521.413 315.466C522.753 314.701 524.234 314.318 525.856 314.318C526.841 314.318 527.769 314.481 528.64 314.807C529.519 315.133 530.265 315.644 530.878 316.341C531.492 317.038 531.916 317.943 532.151 319.057C532.394 320.163 532.386 321.508 532.128 323.091L531.935 324.295H518.049L518.447 321.75H528.992C529.151 320.856 529.109 320.064 528.867 319.375C528.625 318.678 528.208 318.129 527.617 317.727C527.034 317.326 526.299 317.125 525.413 317.125C524.503 317.125 523.655 317.364 522.867 317.841C522.079 318.318 521.42 318.928 520.89 319.67C520.367 320.405 520.038 321.163 519.901 321.943L519.503 324.273C519.306 325.545 519.341 326.568 519.606 327.341C519.878 328.114 520.356 328.674 521.038 329.023C521.719 329.371 522.572 329.545 523.594 329.545C524.253 329.545 524.863 329.455 525.424 329.273C525.992 329.083 526.496 328.807 526.935 328.443C527.375 328.072 527.742 327.61 528.038 327.057L531.151 327.636C530.734 328.583 530.136 329.413 529.356 330.125C528.575 330.83 527.655 331.379 526.594 331.773C525.541 332.159 524.375 332.352 523.094 332.352ZM536.061 332L538.97 314.545H542.254L541.788 317.318H541.97C542.44 316.379 543.125 315.64 544.027 315.102C544.928 314.557 545.89 314.284 546.913 314.284C547.133 314.284 547.383 314.292 547.663 314.307C547.943 314.314 548.171 314.333 548.345 314.364L547.799 317.614C547.671 317.576 547.436 317.534 547.095 317.489C546.754 317.436 546.402 317.409 546.038 317.409C545.243 317.409 544.504 317.58 543.822 317.92C543.14 318.254 542.568 318.72 542.106 319.318C541.644 319.909 541.345 320.583 541.209 321.341L539.459 332H536.061ZM565.289 318.807L562.118 319.352C562.05 318.951 561.91 318.572 561.698 318.216C561.493 317.86 561.179 317.572 560.755 317.352C560.33 317.125 559.766 317.011 559.061 317.011C558.084 317.011 557.228 317.235 556.493 317.682C555.766 318.129 555.349 318.697 555.243 319.386C555.145 319.947 555.277 320.402 555.641 320.75C556.005 321.091 556.645 321.375 557.561 321.602L560.243 322.239C561.789 322.61 562.895 323.189 563.561 323.977C564.236 324.758 564.47 325.773 564.266 327.023C564.092 328.061 563.637 328.981 562.902 329.784C562.175 330.587 561.243 331.216 560.107 331.67C558.97 332.125 557.705 332.352 556.311 332.352C554.327 332.352 552.781 331.932 551.675 331.091C550.569 330.25 550.001 329.061 549.97 327.523L553.334 327.023C553.395 327.879 553.702 328.527 554.255 328.966C554.815 329.398 555.592 329.614 556.584 329.614C557.72 329.621 558.671 329.383 559.436 328.898C560.202 328.413 560.637 327.826 560.743 327.136C560.834 326.598 560.713 326.152 560.38 325.795C560.054 325.439 559.478 325.167 558.652 324.977L555.834 324.33C554.258 323.958 553.145 323.36 552.493 322.534C551.842 321.708 551.622 320.67 551.834 319.42C552.001 318.398 552.433 317.508 553.13 316.75C553.834 315.985 554.724 315.39 555.8 314.966C556.876 314.534 558.065 314.318 559.368 314.318C561.27 314.318 562.698 314.727 563.652 315.545C564.607 316.356 565.152 317.443 565.289 318.807ZM576.193 332.352C574.534 332.352 573.147 331.973 572.034 331.216C570.92 330.451 570.136 329.383 569.681 328.011C569.234 326.633 569.159 325.03 569.454 323.205C569.742 321.417 570.321 319.856 571.193 318.523C572.071 317.189 573.17 316.155 574.488 315.42C575.814 314.686 577.287 314.318 578.909 314.318C580.568 314.318 581.95 314.701 583.056 315.466C584.17 316.231 584.954 317.303 585.409 318.682C585.863 320.061 585.943 321.667 585.647 323.5C585.359 325.273 584.772 326.826 583.886 328.159C583.007 329.485 581.909 330.515 580.59 331.25C579.272 331.985 577.806 332.352 576.193 332.352ZM576.386 329.5C577.477 329.5 578.427 329.212 579.238 328.636C580.056 328.061 580.723 327.295 581.238 326.341C581.753 325.386 582.105 324.341 582.295 323.205C582.469 322.106 582.465 321.102 582.284 320.193C582.109 319.277 581.73 318.542 581.147 317.989C580.564 317.436 579.753 317.159 578.715 317.159C577.624 317.159 576.666 317.451 575.84 318.034C575.022 318.61 574.355 319.379 573.84 320.341C573.333 321.303 572.988 322.352 572.806 323.489C572.632 324.58 572.632 325.583 572.806 326.5C572.98 327.409 573.359 328.136 573.943 328.682C574.526 329.227 575.34 329.5 576.386 329.5ZM594.756 321.636L593.051 332H589.653L592.562 314.545H595.824L595.347 317.386H595.562C596.116 316.455 596.869 315.712 597.824 315.159C598.786 314.598 599.922 314.318 601.233 314.318C602.415 314.318 603.407 314.568 604.21 315.068C605.021 315.561 605.593 316.295 605.926 317.273C606.267 318.25 606.32 319.458 606.085 320.898L604.222 332H600.824L602.608 321.307C602.813 320.042 602.646 319.053 602.108 318.341C601.578 317.621 600.733 317.261 599.574 317.261C598.786 317.261 598.055 317.432 597.381 317.773C596.714 318.114 596.15 318.614 595.688 319.273C595.233 319.924 594.922 320.712 594.756 321.636ZM615.401 332.386C614.295 332.386 613.329 332.182 612.503 331.773C611.678 331.356 611.068 330.754 610.674 329.966C610.28 329.178 610.178 328.212 610.367 327.068C610.534 326.083 610.859 325.273 611.344 324.636C611.837 324 612.435 323.496 613.14 323.125C613.844 322.746 614.609 322.462 615.435 322.273C616.261 322.083 617.094 321.943 617.935 321.852C618.996 321.731 619.856 321.629 620.515 321.545C621.181 321.462 621.681 321.333 622.015 321.159C622.348 320.977 622.549 320.682 622.617 320.273V320.193C622.776 319.208 622.632 318.443 622.185 317.898C621.746 317.345 620.981 317.068 619.89 317.068C618.753 317.068 617.799 317.318 617.026 317.818C616.261 318.318 615.697 318.879 615.333 319.5L612.287 318.773C612.833 317.712 613.526 316.856 614.367 316.205C615.216 315.545 616.144 315.068 617.151 314.773C618.159 314.47 619.189 314.318 620.242 314.318C620.939 314.318 621.662 314.402 622.412 314.568C623.162 314.727 623.844 315.023 624.458 315.455C625.079 315.886 625.541 316.504 625.844 317.307C626.147 318.102 626.193 319.136 625.981 320.409L624.06 332H620.742L621.151 329.614H621.015C620.727 330.053 620.325 330.485 619.81 330.909C619.303 331.333 618.681 331.686 617.947 331.966C617.212 332.246 616.363 332.386 615.401 332.386ZM616.56 329.659C617.507 329.659 618.344 329.473 619.072 329.102C619.806 328.731 620.401 328.246 620.856 327.648C621.31 327.042 621.594 326.394 621.708 325.705L622.083 323.455C621.939 323.576 621.685 323.686 621.322 323.784C620.966 323.883 620.564 323.97 620.117 324.045C619.67 324.121 619.231 324.186 618.799 324.239C618.375 324.292 618.022 324.341 617.742 324.386C617.075 324.47 616.45 324.61 615.867 324.807C615.291 325.004 614.81 325.288 614.424 325.659C614.037 326.023 613.795 326.508 613.697 327.114C613.56 327.955 613.761 328.591 614.299 329.023C614.844 329.447 615.598 329.659 616.56 329.659ZM637.447 308.727L633.584 332H630.186L634.049 308.727H637.447ZM672.005 316.295H668.528C668.513 315.538 668.373 314.871 668.107 314.295C667.842 313.712 667.479 313.223 667.016 312.83C666.562 312.428 666.028 312.125 665.414 311.92C664.801 311.716 664.138 311.614 663.426 311.614C662.054 311.614 660.766 311.962 659.562 312.659C658.357 313.356 657.331 314.371 656.482 315.705C655.634 317.038 655.051 318.663 654.732 320.58C654.422 322.443 654.46 324.008 654.846 325.273C655.232 326.538 655.884 327.496 656.801 328.148C657.725 328.792 658.835 329.114 660.13 329.114C660.888 329.114 661.626 329.015 662.346 328.818C663.073 328.614 663.748 328.314 664.369 327.92C664.99 327.527 665.539 327.045 666.016 326.477C666.501 325.902 666.88 325.242 667.153 324.5H670.676C670.297 325.652 669.763 326.705 669.073 327.659C668.384 328.614 667.57 329.439 666.63 330.136C665.691 330.833 664.66 331.371 663.539 331.75C662.418 332.129 661.232 332.318 659.982 332.318C657.929 332.318 656.179 331.83 654.732 330.852C653.293 329.867 652.259 328.466 651.63 326.648C651.009 324.83 650.903 322.663 651.312 320.148C651.729 317.701 652.524 315.602 653.698 313.852C654.88 312.095 656.32 310.75 658.016 309.818C659.721 308.879 661.562 308.409 663.539 308.409C664.789 308.409 665.933 308.587 666.971 308.943C668.009 309.292 668.903 309.807 669.653 310.489C670.41 311.163 670.994 311.989 671.403 312.966C671.812 313.936 672.013 315.045 672.005 316.295ZM682.386 332.352C680.727 332.352 679.341 331.973 678.227 331.216C677.114 330.451 676.33 329.383 675.875 328.011C675.428 326.633 675.352 325.03 675.648 323.205C675.936 321.417 676.515 319.856 677.386 318.523C678.265 317.189 679.364 316.155 680.682 315.42C682.008 314.686 683.481 314.318 685.102 314.318C686.761 314.318 688.144 314.701 689.25 315.466C690.364 316.231 691.148 317.303 691.602 318.682C692.057 320.061 692.136 321.667 691.841 323.5C691.553 325.273 690.966 326.826 690.08 328.159C689.201 329.485 688.102 330.515 686.784 331.25C685.466 331.985 684 332.352 682.386 332.352ZM682.58 329.5C683.67 329.5 684.621 329.212 685.432 328.636C686.25 328.061 686.917 327.295 687.432 326.341C687.947 325.386 688.299 324.341 688.489 323.205C688.663 322.106 688.659 321.102 688.477 320.193C688.303 319.277 687.924 318.542 687.341 317.989C686.758 317.436 685.947 317.159 684.909 317.159C683.818 317.159 682.86 317.451 682.034 318.034C681.216 318.61 680.549 319.379 680.034 320.341C679.527 321.303 679.182 322.352 679 323.489C678.826 324.58 678.826 325.583 679 326.5C679.174 327.409 679.553 328.136 680.136 328.682C680.72 329.227 681.534 329.5 682.58 329.5ZM700.87 332.386C699.764 332.386 698.798 332.182 697.972 331.773C697.146 331.356 696.537 330.754 696.143 329.966C695.749 329.178 695.646 328.212 695.836 327.068C696.002 326.083 696.328 325.273 696.813 324.636C697.305 324 697.904 323.496 698.609 323.125C699.313 322.746 700.078 322.462 700.904 322.273C701.73 322.083 702.563 321.943 703.404 321.852C704.465 321.731 705.324 321.629 705.984 321.545C706.65 321.462 707.15 321.333 707.484 321.159C707.817 320.977 708.018 320.682 708.086 320.273V320.193C708.245 319.208 708.101 318.443 707.654 317.898C707.215 317.345 706.449 317.068 705.359 317.068C704.222 317.068 703.268 317.318 702.495 317.818C701.73 318.318 701.165 318.879 700.802 319.5L697.756 318.773C698.302 317.712 698.995 316.856 699.836 316.205C700.684 315.545 701.612 315.068 702.62 314.773C703.627 314.47 704.658 314.318 705.711 314.318C706.408 314.318 707.131 314.402 707.881 314.568C708.631 314.727 709.313 315.023 709.927 315.455C710.548 315.886 711.01 316.504 711.313 317.307C711.616 318.102 711.662 319.136 711.449 320.409L709.529 332H706.211L706.62 329.614H706.484C706.196 330.053 705.794 330.485 705.279 330.909C704.771 331.333 704.15 331.686 703.415 331.966C702.68 332.246 701.832 332.386 700.87 332.386ZM702.029 329.659C702.976 329.659 703.813 329.473 704.54 329.102C705.275 328.731 705.87 328.246 706.324 327.648C706.779 327.042 707.063 326.394 707.177 325.705L707.552 323.455C707.408 323.576 707.154 323.686 706.79 323.784C706.434 323.883 706.033 323.97 705.586 324.045C705.139 324.121 704.699 324.186 704.268 324.239C703.843 324.292 703.491 324.341 703.211 324.386C702.544 324.47 701.919 324.61 701.336 324.807C700.76 325.004 700.279 325.288 699.893 325.659C699.506 326.023 699.264 326.508 699.165 327.114C699.029 327.955 699.23 328.591 699.768 329.023C700.313 329.447 701.067 329.659 702.029 329.659ZM722.961 332.352C721.264 332.352 719.874 331.97 718.791 331.205C717.708 330.432 716.954 329.367 716.53 328.011C716.105 326.655 716.037 325.102 716.325 323.352C716.613 321.58 717.2 320.015 718.086 318.659C718.98 317.295 720.098 316.231 721.439 315.466C722.787 314.701 724.283 314.318 725.927 314.318C727.253 314.318 728.393 314.564 729.348 315.057C730.302 315.542 731.026 316.223 731.518 317.102C732.011 317.981 732.223 319.008 732.155 320.182H728.848C728.795 319.364 728.492 318.659 727.939 318.068C727.386 317.477 726.571 317.182 725.495 317.182C724.548 317.182 723.677 317.432 722.882 317.932C722.086 318.424 721.416 319.129 720.87 320.045C720.325 320.955 719.954 322.03 719.757 323.273C719.545 324.545 719.556 325.644 719.791 326.568C720.026 327.492 720.458 328.208 721.086 328.716C721.715 329.223 722.507 329.477 723.461 329.477C724.113 329.477 724.719 329.36 725.28 329.125C725.848 328.883 726.348 328.538 726.78 328.091C727.219 327.644 727.56 327.106 727.802 326.477H731.12C730.795 327.606 730.249 328.614 729.484 329.5C728.727 330.386 727.795 331.083 726.689 331.591C725.583 332.098 724.34 332.352 722.961 332.352ZM740.524 321.636L738.82 332H735.422L739.286 308.727H742.638L741.206 317.386H741.422C741.975 316.439 742.718 315.693 743.649 315.148C744.589 314.595 745.74 314.318 747.104 314.318C748.301 314.318 749.305 314.564 750.115 315.057C750.934 315.549 751.509 316.284 751.843 317.261C752.184 318.231 752.237 319.443 752.002 320.898L750.138 332H746.74L748.513 321.307C748.725 320.027 748.559 319.034 748.013 318.33C747.468 317.617 746.615 317.261 745.456 317.261C744.646 317.261 743.896 317.432 743.206 317.773C742.524 318.114 741.949 318.614 741.479 319.273C741.009 319.924 740.691 320.712 740.524 321.636ZM756.261 332L759.17 314.545H762.568L759.659 332H756.261ZM761.579 311.818C760.988 311.818 760.488 311.621 760.079 311.227C759.677 310.826 759.492 310.348 759.522 309.795C759.552 309.235 759.787 308.758 760.227 308.364C760.666 307.962 761.177 307.761 761.761 307.761C762.352 307.761 762.848 307.962 763.249 308.364C763.651 308.758 763.84 309.235 763.818 309.795C763.787 310.348 763.552 310.826 763.113 311.227C762.681 311.621 762.17 311.818 761.579 311.818ZM770.943 321.636L769.239 332H765.841L768.75 314.545H772.011L771.534 317.386H771.75C772.303 316.455 773.057 315.712 774.011 315.159C774.973 314.598 776.11 314.318 777.42 314.318C778.602 314.318 779.595 314.568 780.398 315.068C781.208 315.561 781.78 316.295 782.114 317.273C782.455 318.25 782.508 319.458 782.273 320.898L780.409 332H777.011L778.795 321.307C779 320.042 778.833 319.053 778.295 318.341C777.765 317.621 776.92 317.261 775.761 317.261C774.973 317.261 774.242 317.432 773.568 317.773C772.902 318.114 772.337 318.614 771.875 319.273C771.42 319.924 771.11 320.712 770.943 321.636ZM792.782 338.909C791.388 338.909 790.221 338.727 789.282 338.364C788.35 338 787.615 337.519 787.077 336.92C786.547 336.322 786.18 335.667 785.975 334.955L789.111 333.75C789.263 334.083 789.475 334.436 789.748 334.807C790.02 335.186 790.426 335.508 790.964 335.773C791.509 336.038 792.255 336.17 793.202 336.17C794.49 336.17 795.615 335.856 796.577 335.227C797.539 334.606 798.134 333.614 798.361 332.25L798.895 328.818H798.68C798.422 329.189 798.066 329.602 797.611 330.057C797.157 330.511 796.57 330.905 795.85 331.239C795.13 331.572 794.236 331.739 793.168 331.739C791.789 331.739 790.6 331.417 789.6 330.773C788.608 330.121 787.895 329.163 787.464 327.898C787.032 326.625 786.971 325.061 787.282 323.205C787.585 321.348 788.161 319.758 789.009 318.432C789.865 317.106 790.903 316.091 792.123 315.386C793.35 314.674 794.664 314.318 796.066 314.318C797.149 314.318 797.994 314.5 798.6 314.864C799.214 315.22 799.668 315.636 799.964 316.114C800.259 316.591 800.475 317.011 800.611 317.375H800.861L801.327 314.545H804.657L801.702 332.386C801.46 333.886 800.911 335.117 800.055 336.08C799.206 337.042 798.149 337.754 796.884 338.216C795.627 338.678 794.259 338.909 792.782 338.909ZM794.327 328.92C795.297 328.92 796.161 328.693 796.918 328.239C797.683 327.777 798.32 327.117 798.827 326.261C799.335 325.398 799.687 324.364 799.884 323.159C800.081 321.985 800.07 320.951 799.85 320.057C799.638 319.163 799.225 318.466 798.611 317.966C798.005 317.458 797.214 317.205 796.236 317.205C795.206 317.205 794.312 317.47 793.555 318C792.797 318.523 792.18 319.235 791.702 320.136C791.233 321.038 790.903 322.045 790.714 323.159C790.532 324.303 790.536 325.307 790.725 326.17C790.922 327.034 791.316 327.708 791.907 328.193C792.498 328.678 793.305 328.92 794.327 328.92ZM824.701 332.33C823.14 332.33 821.844 332.045 820.814 331.477C819.784 330.909 819.045 330.136 818.598 329.159C818.159 328.174 818.045 327.061 818.257 325.818C818.401 324.864 818.731 324.019 819.246 323.284C819.769 322.549 820.435 321.867 821.246 321.239C822.064 320.61 822.985 319.977 824.007 319.341L828.189 316.693C828.886 316.277 829.451 315.837 829.882 315.375C830.314 314.905 830.591 314.326 830.712 313.636C830.795 313.091 830.644 312.568 830.257 312.068C829.871 311.568 829.28 311.318 828.485 311.318C827.947 311.318 827.447 311.451 826.985 311.716C826.53 311.981 826.151 312.322 825.848 312.739C825.553 313.148 825.367 313.58 825.291 314.034C825.208 314.564 825.269 315.098 825.473 315.636C825.678 316.167 825.966 316.72 826.337 317.295C826.716 317.864 827.106 318.458 827.507 319.08L836.155 332H832.314L825.121 321.489C824.523 320.602 823.969 319.769 823.462 318.989C822.954 318.201 822.568 317.405 822.303 316.602C822.038 315.792 821.981 314.917 822.132 313.977C822.307 312.909 822.704 311.962 823.326 311.136C823.947 310.303 824.735 309.652 825.689 309.182C826.651 308.712 827.723 308.477 828.905 308.477C830.102 308.477 831.094 308.712 831.882 309.182C832.67 309.644 833.231 310.261 833.564 311.034C833.905 311.799 833.996 312.636 833.837 313.545C833.655 314.652 833.216 315.625 832.519 316.466C831.829 317.307 830.947 318.083 829.871 318.795L824.644 322.239C823.621 322.913 822.879 323.576 822.416 324.227C821.954 324.871 821.697 325.371 821.644 325.727C821.538 326.394 821.61 327.011 821.86 327.58C822.11 328.148 822.519 328.602 823.087 328.943C823.663 329.284 824.371 329.455 825.212 329.455C826.068 329.455 826.935 329.269 827.814 328.898C828.701 328.519 829.534 327.977 830.314 327.273C831.102 326.568 831.773 325.723 832.326 324.739C832.886 323.754 833.265 322.652 833.462 321.432H836.53C836.28 322.932 835.905 324.193 835.405 325.216C834.913 326.239 834.379 327.076 833.803 327.727C833.235 328.371 832.708 328.886 832.223 329.273C832.064 329.394 831.901 329.515 831.735 329.636C831.568 329.758 831.405 329.879 831.246 330C830.329 330.788 829.28 331.375 828.098 331.761C826.916 332.14 825.784 332.33 824.701 332.33ZM850.759 332L854.622 308.727H869.054L868.554 311.75H857.634L856.452 318.841H866.338L865.838 321.852H855.952L854.27 332H850.759ZM870.836 332L873.745 314.545H877.143L874.234 332H870.836ZM876.154 311.818C875.563 311.818 875.063 311.621 874.654 311.227C874.252 310.826 874.067 310.348 874.097 309.795C874.127 309.235 874.362 308.758 874.802 308.364C875.241 307.962 875.752 307.761 876.336 307.761C876.927 307.761 877.423 307.962 877.824 308.364C878.226 308.758 878.415 309.235 878.393 309.795C878.362 310.348 878.127 310.826 877.688 311.227C877.256 311.621 876.745 311.818 876.154 311.818ZM891.461 314.545L891.018 317.273H881.484L881.927 314.545H891.461ZM885.166 310.364H888.564L885.814 326.875C885.708 327.534 885.727 328.03 885.87 328.364C886.014 328.689 886.234 328.913 886.53 329.034C886.833 329.148 887.17 329.205 887.541 329.205C887.814 329.205 888.052 329.186 888.257 329.148C888.461 329.11 888.624 329.08 888.745 329.057L888.927 331.864C888.7 331.939 888.393 332.015 888.007 332.091C887.628 332.174 887.166 332.22 886.62 332.227C885.727 332.242 884.92 332.083 884.2 331.75C883.48 331.409 882.942 330.894 882.586 330.205C882.23 329.508 882.143 328.633 882.325 327.58L885.166 310.364ZM899.024 321.636L897.32 332H893.922L896.831 314.545H900.093L899.615 317.386H899.831C900.384 316.455 901.138 315.712 902.093 315.159C903.055 314.598 904.191 314.318 905.502 314.318C906.684 314.318 907.676 314.568 908.479 315.068C909.29 315.561 909.862 316.295 910.195 317.273C910.536 318.25 910.589 319.458 910.354 320.898L908.49 332H905.093L906.877 321.307C907.081 320.042 906.915 319.053 906.377 318.341C905.846 317.621 905.002 317.261 903.843 317.261C903.055 317.261 902.324 317.432 901.649 317.773C900.983 318.114 900.418 318.614 899.956 319.273C899.502 319.924 899.191 320.712 899.024 321.636ZM922.113 332.352C920.401 332.352 918.984 331.985 917.863 331.25C916.749 330.508 915.969 329.466 915.522 328.125C915.075 326.777 915.003 325.197 915.306 323.386C915.602 321.598 916.196 320.023 917.09 318.659C917.984 317.295 919.098 316.231 920.431 315.466C921.772 314.701 923.253 314.318 924.874 314.318C925.859 314.318 926.787 314.481 927.659 314.807C928.537 315.133 929.284 315.644 929.897 316.341C930.511 317.038 930.935 317.943 931.17 319.057C931.412 320.163 931.405 321.508 931.147 323.091L930.954 324.295H917.068L917.465 321.75H928.011C928.17 320.856 928.128 320.064 927.886 319.375C927.643 318.678 927.227 318.129 926.636 317.727C926.052 317.326 925.318 317.125 924.431 317.125C923.522 317.125 922.674 317.364 921.886 317.841C921.098 318.318 920.439 318.928 919.909 319.67C919.386 320.405 919.056 321.163 918.92 321.943L918.522 324.273C918.325 325.545 918.359 326.568 918.624 327.341C918.897 328.114 919.374 328.674 920.056 329.023C920.738 329.371 921.59 329.545 922.613 329.545C923.272 329.545 923.882 329.455 924.443 329.273C925.011 329.083 925.515 328.807 925.954 328.443C926.393 328.072 926.761 327.61 927.056 327.057L930.17 327.636C929.753 328.583 929.155 329.413 928.374 330.125C927.594 330.83 926.674 331.379 925.613 331.773C924.56 332.159 923.393 332.352 922.113 332.352ZM950.364 318.807L947.193 319.352C947.125 318.951 946.985 318.572 946.773 318.216C946.568 317.86 946.254 317.572 945.83 317.352C945.405 317.125 944.841 317.011 944.136 317.011C943.159 317.011 942.303 317.235 941.568 317.682C940.841 318.129 940.424 318.697 940.318 319.386C940.22 319.947 940.352 320.402 940.716 320.75C941.08 321.091 941.72 321.375 942.636 321.602L945.318 322.239C946.864 322.61 947.97 323.189 948.636 323.977C949.311 324.758 949.545 325.773 949.341 327.023C949.167 328.061 948.712 328.981 947.977 329.784C947.25 330.587 946.318 331.216 945.182 331.67C944.045 332.125 942.78 332.352 941.386 332.352C939.402 332.352 937.856 331.932 936.75 331.091C935.644 330.25 935.076 329.061 935.045 327.523L938.409 327.023C938.47 327.879 938.777 328.527 939.33 328.966C939.89 329.398 940.667 329.614 941.659 329.614C942.795 329.621 943.746 329.383 944.511 328.898C945.277 328.413 945.712 327.826 945.818 327.136C945.909 326.598 945.788 326.152 945.455 325.795C945.129 325.439 944.553 325.167 943.727 324.977L940.909 324.33C939.333 323.958 938.22 323.36 937.568 322.534C936.917 321.708 936.697 320.67 936.909 319.42C937.076 318.398 937.508 317.508 938.205 316.75C938.909 315.985 939.799 315.39 940.875 314.966C941.951 314.534 943.14 314.318 944.443 314.318C946.345 314.318 947.773 314.727 948.727 315.545C949.682 316.356 950.227 317.443 950.364 318.807ZM969.12 318.807L965.949 319.352C965.881 318.951 965.741 318.572 965.529 318.216C965.324 317.86 965.01 317.572 964.586 317.352C964.162 317.125 963.597 317.011 962.893 317.011C961.915 317.011 961.059 317.235 960.324 317.682C959.597 318.129 959.18 318.697 959.074 319.386C958.976 319.947 959.109 320.402 959.472 320.75C959.836 321.091 960.476 321.375 961.393 321.602L964.074 322.239C965.62 322.61 966.726 323.189 967.393 323.977C968.067 324.758 968.302 325.773 968.097 327.023C967.923 328.061 967.468 328.981 966.734 329.784C966.006 330.587 965.074 331.216 963.938 331.67C962.802 332.125 961.537 332.352 960.143 332.352C958.158 332.352 956.612 331.932 955.506 331.091C954.4 330.25 953.832 329.061 953.802 327.523L957.165 327.023C957.226 327.879 957.533 328.527 958.086 328.966C958.646 329.398 959.423 329.614 960.415 329.614C961.552 329.621 962.502 329.383 963.268 328.898C964.033 328.413 964.468 327.826 964.574 327.136C964.665 326.598 964.544 326.152 964.211 325.795C963.885 325.439 963.309 325.167 962.484 324.977L959.665 324.33C958.09 323.958 956.976 323.36 956.324 322.534C955.673 321.708 955.453 320.67 955.665 319.42C955.832 318.398 956.264 317.508 956.961 316.75C957.665 315.985 958.555 315.39 959.631 314.966C960.707 314.534 961.896 314.318 963.199 314.318C965.101 314.318 966.529 314.727 967.484 315.545C968.438 316.356 968.984 317.443 969.12 318.807Z" fill="black"/>
<path d="M455.908 392V358.545H469.303C471.764 358.545 473.817 358.91 475.461 359.64C477.105 360.37 478.341 361.382 479.169 362.678C479.997 363.963 480.411 365.444 480.411 367.121C480.411 368.428 480.149 369.577 479.626 370.568C479.104 371.548 478.385 372.354 477.47 372.986C476.566 373.607 475.532 374.048 474.366 374.309V374.636C475.641 374.69 476.833 375.049 477.944 375.714C479.066 376.378 479.975 377.309 480.672 378.507C481.369 379.694 481.717 381.11 481.717 382.754C481.717 384.529 481.276 386.114 480.394 387.508C479.523 388.891 478.232 389.985 476.523 390.791C474.813 391.597 472.706 392 470.201 392H455.908ZM462.981 386.217H468.747C470.718 386.217 472.156 385.842 473.06 385.09C473.964 384.328 474.415 383.315 474.415 382.052C474.415 381.126 474.192 380.309 473.746 379.602C473.299 378.894 472.662 378.338 471.835 377.935C471.018 377.532 470.043 377.331 468.911 377.331H462.981V386.217ZM462.981 372.545H468.224C469.194 372.545 470.054 372.376 470.805 372.038C471.568 371.69 472.167 371.2 472.602 370.568C473.049 369.937 473.272 369.18 473.272 368.298C473.272 367.089 472.842 366.114 471.982 365.374C471.132 364.633 469.923 364.263 468.355 364.263H462.981V372.545ZM486.32 392V358.545H508.862V364.377H493.393V372.349H507.703V378.18H493.393V386.168H508.928V392H486.32ZM544.004 370.258H536.849C536.718 369.332 536.451 368.51 536.048 367.791C535.645 367.062 535.128 366.441 534.496 365.929C533.865 365.417 533.135 365.025 532.308 364.753C531.491 364.481 530.603 364.344 529.645 364.344C527.913 364.344 526.405 364.775 525.12 365.635C523.835 366.484 522.839 367.726 522.131 369.359C521.423 370.982 521.069 372.953 521.069 375.273C521.069 377.658 521.423 379.661 522.131 381.284C522.849 382.907 523.851 384.132 525.136 384.96C526.421 385.787 527.908 386.201 529.596 386.201C530.543 386.201 531.42 386.076 532.226 385.825C533.043 385.575 533.767 385.21 534.398 384.731C535.03 384.241 535.553 383.647 535.967 382.95C536.391 382.253 536.685 381.458 536.849 380.565L544.004 380.598C543.818 382.134 543.356 383.615 542.615 385.041C541.885 386.457 540.9 387.726 539.658 388.847C538.428 389.958 536.958 390.84 535.248 391.494C533.549 392.136 531.627 392.457 529.482 392.457C526.498 392.457 523.83 391.782 521.477 390.432C519.136 389.081 517.285 387.127 515.923 384.567C514.573 382.008 513.898 378.91 513.898 375.273C513.898 371.625 514.584 368.521 515.956 365.962C517.328 363.402 519.19 361.453 521.543 360.114C523.895 358.763 526.541 358.088 529.482 358.088C531.42 358.088 533.217 358.36 534.872 358.905C536.538 359.449 538.014 360.244 539.299 361.29C540.584 362.324 541.629 363.593 542.435 365.096C543.252 366.599 543.775 368.319 544.004 370.258ZM579.819 375.273C579.819 378.921 579.127 382.025 577.744 384.584C576.372 387.143 574.499 389.098 572.125 390.448C569.761 391.788 567.104 392.457 564.153 392.457C561.18 392.457 558.512 391.782 556.149 390.432C553.786 389.081 551.918 387.127 550.546 384.567C549.174 382.008 548.488 378.91 548.488 375.273C548.488 371.625 549.174 368.521 550.546 365.962C551.918 363.402 553.786 361.453 556.149 360.114C558.512 358.763 561.18 358.088 564.153 358.088C567.104 358.088 569.761 358.763 572.125 360.114C574.499 361.453 576.372 363.402 577.744 365.962C579.127 368.521 579.819 371.625 579.819 375.273ZM572.647 375.273C572.647 372.91 572.293 370.917 571.586 369.294C570.889 367.671 569.903 366.441 568.629 365.602C567.355 364.764 565.863 364.344 564.153 364.344C562.443 364.344 560.951 364.764 559.677 365.602C558.403 366.441 557.412 367.671 556.704 369.294C556.007 370.917 555.659 372.91 555.659 375.273C555.659 377.636 556.007 379.629 556.704 381.251C557.412 382.874 558.403 384.105 559.677 384.943C560.951 385.782 562.443 386.201 564.153 386.201C565.863 386.201 567.355 385.782 568.629 384.943C569.903 384.105 570.889 382.874 571.586 381.251C572.293 379.629 572.647 377.636 572.647 375.273ZM585.058 358.545H593.781L602.994 381.023H603.386L612.599 358.545H621.322V392H614.461V370.225H614.184L605.526 391.837H600.854L592.197 370.143H591.919V392H585.058V358.545ZM627.15 392V358.545H649.692V364.377H634.223V372.349H648.533V378.18H634.223V386.168H649.758V392H627.15ZM664.002 358.545H671.925L679.553 372.953H679.88L687.509 358.545H695.431L683.229 380.173V392H676.205V380.173L664.002 358.545ZM728.016 375.273C728.016 378.921 727.324 382.025 725.941 384.584C724.569 387.143 722.696 389.098 720.322 390.448C717.959 391.788 715.302 392.457 712.35 392.457C709.377 392.457 706.709 391.782 704.346 390.432C701.983 389.081 700.115 387.127 698.743 384.567C697.371 382.008 696.685 378.91 696.685 375.273C696.685 371.625 697.371 368.521 698.743 365.962C700.115 363.402 701.983 361.453 704.346 360.114C706.709 358.763 709.377 358.088 712.35 358.088C715.302 358.088 717.959 358.763 720.322 360.114C722.696 361.453 724.569 363.402 725.941 365.962C727.324 368.521 728.016 371.625 728.016 375.273ZM720.845 375.273C720.845 372.91 720.491 370.917 719.783 369.294C719.086 367.671 718.1 366.441 716.826 365.602C715.552 364.764 714.06 364.344 712.35 364.344C710.641 364.344 709.149 364.764 707.874 365.602C706.6 366.441 705.609 367.671 704.901 369.294C704.204 370.917 703.856 372.91 703.856 375.273C703.856 377.636 704.204 379.629 704.901 381.251C705.609 382.874 706.6 384.105 707.874 384.943C709.149 385.782 710.641 386.201 712.35 386.201C714.06 386.201 715.552 385.782 716.826 384.943C718.1 384.105 719.086 382.874 719.783 381.251C720.491 379.629 720.845 377.636 720.845 375.273ZM753.919 358.545H760.993V380.271C760.993 382.711 760.41 384.845 759.245 386.675C758.09 388.504 756.473 389.931 754.393 390.955C752.313 391.967 749.89 392.474 747.124 392.474C744.347 392.474 741.918 391.967 739.838 390.955C737.758 389.931 736.141 388.504 734.987 386.675C733.833 384.845 733.255 382.711 733.255 380.271V358.545H740.328V379.667C740.328 380.941 740.606 382.074 741.162 383.065C741.728 384.056 742.523 384.834 743.547 385.401C744.57 385.967 745.763 386.25 747.124 386.25C748.496 386.25 749.689 385.967 750.701 385.401C751.725 384.834 752.515 384.056 753.07 383.065C753.636 382.074 753.919 380.941 753.919 379.667V358.545ZM766.812 392V358.545H780.011C782.537 358.545 784.694 358.997 786.48 359.901C788.276 360.794 789.643 362.063 790.58 363.707C791.527 365.341 792.001 367.263 792.001 369.474C792.001 371.695 791.522 373.607 790.563 375.207C789.605 376.797 788.217 378.017 786.398 378.866C784.59 379.716 782.401 380.141 779.831 380.141H770.994V374.456H778.688C780.038 374.456 781.16 374.271 782.053 373.901C782.946 373.53 783.61 372.975 784.046 372.234C784.492 371.494 784.715 370.574 784.715 369.474C784.715 368.363 784.492 367.426 784.046 366.664C783.61 365.902 782.94 365.325 782.036 364.933C781.143 364.53 780.016 364.328 778.655 364.328H773.885V392H766.812ZM784.879 376.776L793.193 392H785.385L777.25 376.776H784.879ZM807.646 392V358.545H821.041C823.502 358.545 825.555 358.91 827.199 359.64C828.844 360.37 830.08 361.382 830.907 362.678C831.735 363.963 832.149 365.444 832.149 367.121C832.149 368.428 831.887 369.577 831.365 370.568C830.842 371.548 830.123 372.354 829.208 372.986C828.305 373.607 827.27 374.048 826.105 374.309V374.636C827.379 374.69 828.571 375.049 829.682 375.714C830.804 376.378 831.713 377.309 832.41 378.507C833.107 379.694 833.456 381.11 833.456 382.754C833.456 384.529 833.015 386.114 832.132 387.508C831.261 388.891 829.971 389.985 828.261 390.791C826.551 391.597 824.444 392 821.939 392H807.646ZM814.719 386.217H820.485C822.457 386.217 823.894 385.842 824.798 385.09C825.702 384.328 826.154 383.315 826.154 382.052C826.154 381.126 825.931 380.309 825.484 379.602C825.038 378.894 824.4 378.338 823.573 377.935C822.756 377.532 821.781 377.331 820.649 377.331H814.719V386.217ZM814.719 372.545H819.963C820.932 372.545 821.792 372.376 822.544 372.038C823.306 371.69 823.905 371.2 824.341 370.568C824.787 369.937 825.01 369.18 825.01 368.298C825.01 367.089 824.58 366.114 823.72 365.374C822.87 364.633 821.662 364.263 820.093 364.263H814.719V372.545ZM838.058 392V358.545H860.601V364.377H845.131V372.349H859.441V378.18H845.131V386.168H860.666V392H838.058ZM884.373 368.167C884.242 366.849 883.681 365.826 882.69 365.096C881.699 364.366 880.354 364.001 878.655 364.001C877.501 364.001 876.526 364.165 875.731 364.491C874.936 364.807 874.326 365.248 873.902 365.815C873.488 366.381 873.281 367.023 873.281 367.742C873.259 368.341 873.384 368.864 873.657 369.31C873.94 369.757 874.326 370.143 874.816 370.47C875.306 370.786 875.873 371.064 876.515 371.303C877.158 371.532 877.844 371.728 878.574 371.891L881.579 372.61C883.038 372.937 884.378 373.372 885.598 373.917C886.817 374.461 887.874 375.131 888.767 375.926C889.66 376.721 890.351 377.658 890.841 378.736C891.342 379.814 891.598 381.05 891.609 382.444C891.598 384.491 891.075 386.266 890.041 387.769C889.017 389.261 887.536 390.421 885.598 391.249C883.67 392.065 881.345 392.474 878.623 392.474C875.922 392.474 873.569 392.06 871.566 391.232C869.573 390.405 868.016 389.179 866.894 387.557C865.783 385.923 865.2 383.903 865.146 381.496H871.99C872.067 382.618 872.388 383.555 872.954 384.306C873.531 385.047 874.299 385.607 875.257 385.989C876.227 386.359 877.321 386.544 878.541 386.544C879.739 386.544 880.779 386.37 881.661 386.021C882.554 385.673 883.245 385.188 883.735 384.567C884.225 383.947 884.471 383.233 884.471 382.428C884.471 381.676 884.247 381.045 883.801 380.533C883.365 380.021 882.723 379.585 881.873 379.226C881.035 378.866 880.006 378.54 878.786 378.246L875.143 377.331C872.323 376.645 870.096 375.572 868.462 374.113C866.828 372.654 866.017 370.688 866.028 368.216C866.017 366.19 866.556 364.421 867.645 362.907C868.745 361.393 870.253 360.212 872.17 359.362C874.087 358.513 876.265 358.088 878.704 358.088C881.187 358.088 883.354 358.513 885.206 359.362C887.068 360.212 888.516 361.393 889.551 362.907C890.585 364.421 891.119 366.174 891.152 368.167H884.373ZM895.093 364.377V358.545H922.568V364.377H912.326V392H905.335V364.377H895.093Z" fill="black"/>
<path d="M937.364 358.545H947.377L955.872 379.259H956.264L964.758 358.545H974.772V392H966.898V371.45H966.62L958.583 391.788H953.552L945.515 371.336H945.238V392H937.364V358.545ZM979.815 392V358.545H1003.14V365.112H987.901V371.973H1001.95V378.556H987.901V385.433H1003.14V392H979.815Z" fill="#30BCF3"/>
<defs>
<linearGradient id="paint0_linear_36_21" x1="750.637" y1="218.599" x2="750.637" y2="291.599" gradientUnits="userSpaceOnUse">
<stop stop-color="#38BFF6"/>
<stop offset="1" stop-color="#88E0FF"/>
</linearGradient>
<linearGradient id="paint1_linear_36_21" x1="758" y1="125" x2="758" y2="216" gradientUnits="userSpaceOnUse">
<stop/>
<stop offset="1" stop-color="#737373"/>
</linearGradient>
</defs>
</svg>
